<svg width="1512" height="982" viewBox="0 0 1512 982" fill="none" xmlns="http://www.w3.org/2000/svg">
<rect x="-57" y="-86" width="1720" height="1196" fill="url(#paint0_linear_160_952)"/>
<g clip-path="url(#clip0_160_952)">
<path d="M41 146C41 141.582 44.5817 138 49 138H668C672.418 138 676 141.582 676 146V600C676 604.418 672.418 608 668 608H49C44.5817 608 41 604.418 41 600V146Z" fill="white"/>
<path d="M-3 189H719V658.764H-3V189Z" fill="url(#paint1_linear_160_952)"/>
<g clip-path="url(#clip1_160_952)">
<path d="M733.205 519.974C719.353 533.383 698.362 544.156 686.308 556.957C675.708 568.3 669.264 581.567 662.668 594.628C660.883 598.209 659.229 601.777 657.576 605.346C642.714 637.681 628.208 672.406 595.808 694.378C567.013 713.81 526.621 719.789 492.235 710.671C457.85 701.552 430.342 678.134 418.414 649.846C409.029 627.487 409.273 601.804 420.71 579.59C432.268 557.255 455.323 538.8 483.009 531.586C515.222 523.178 553.152 529.102 579.745 511.638C596.966 500.226 603.294 482.895 616.286 468.795C624.1 460.246 634.138 452.809 646.101 448.938C672.351 440.536 711.384 448.339 731.474 463.31C740.305 469.863 745.986 479.573 746.796 489.629C748.053 501.626 742.07 511.326 733.205 519.974Z" fill="url(#paint2_linear_160_952)"/>
<path opacity="0.56" d="M766.278 718.031C746.922 723.663 730.996 702.114 715.683 694.523C699.266 686.442 684.566 682.524 670.477 682.401C642.545 682.279 623.066 704.318 606.895 724.275C588.887 746.437 569.408 766.517 538.536 767.252C531.798 767.374 522.365 766.15 516.239 759.293C505.459 747.294 509.747 730.52 513.054 716.684C523.1 673.708 532.043 606.611 479.365 587.511C471.279 584.572 462.948 581.511 457.803 574.9C432.566 542.208 465.766 518.21 494.801 507.803C523.835 497.396 556.422 491.029 583.251 474.01C611.796 455.889 624.292 418.3 657.491 406.668C667.047 403.362 676.235 404.219 682.728 408.995C690.936 414.994 694.856 425.646 697.061 432.993C706.862 465.561 680.155 497.763 691.916 530.087C699.511 551.024 719.235 565.349 737.489 576.736C767.748 595.469 791.27 615.917 791.883 654.485C792.128 673.586 787.35 692.441 778.162 707.746C775.221 712.644 772.036 715.827 768.238 717.296C767.626 717.541 766.891 717.786 766.278 718.031Z" fill="#7FACD6"/>
<path d="M520.282 520.782C519.792 499.967 520.65 478.05 528.49 458.338C535.718 440.339 553.727 419.157 574.798 418.055C588.397 417.32 595.135 434.095 603.22 442.176C654.796 494.212 734.426 460.419 793.598 492.743C804.011 498.375 813.321 507.436 816.384 519.19C819.569 531.434 815.404 544.412 809.646 555.677C796.048 582.124 774.854 601.836 753.292 621.671C734.304 639.058 701.472 657.179 699.266 685.952C698.409 697.584 707.352 707.501 709.802 718.398C716.05 746.927 685.178 765.415 660.799 767.619C632.5 770.19 602.485 758.803 583.251 737.254C558.137 709.093 550.664 647.261 505.459 642.486C501.048 641.996 496.148 642.241 492.595 639.67C487.45 635.997 487.083 628.038 489.9 622.406C494.065 613.835 501.416 607.713 506.684 599.877C521.752 576.981 520.895 548.698 520.282 520.782Z" fill="url(#paint3_linear_160_952)"/>
<path d="M451.974 491.065C440.938 478.741 420.783 481.091 406.797 485.975C385.7 493.27 356.329 510.649 367.548 537.469C368.951 540.759 370.891 543.938 373.226 546.589C379.41 553.816 388.555 558.031 397.866 559.25C405.812 560.357 414.738 559.698 421.992 555.805C426.128 553.614 429.333 550.161 430.566 545.547C431.166 543.3 431.357 540.689 431.247 538.252C431.043 536.17 429.49 532.967 431.124 531.122C433.848 528.047 439.292 529.501 442.907 528.311C447.777 526.696 452.41 523.117 455.127 518.647C460.528 509.823 458.954 498.631 451.974 491.065Z" fill="url(#paint4_linear_160_952)"/>
<path d="M192.002 306.865C254.113 252.257 314.51 150.878 243.577 86.3521C190.286 37.8662 121.437 119.656 62.2655 108.391C13.1398 98.9633 -40.2737 47.1715 -87.3168 94.6779C-120.271 127.859 -100.915 175.488 -110.593 215.893C-121.864 262.787 -215.093 332.7 -138.403 370.411C-47.2566 415.224 81.8668 380.573 163.09 329.026C172.4 323.027 182.201 315.558 192.002 306.865Z" fill="url(#paint5_linear_160_952)"/>
<path opacity="0.62" d="M163.58 321.68C200.455 314.089 210.623 328.659 241.495 317.885C247.865 315.681 280.82 304.049 290.498 276.745C302.871 241.36 269.427 198.506 240.025 178.181C185.999 140.715 119.599 161.407 101.591 166.917C88.2373 171.08 31.7611 190.181 -4.50125 248.094C-26.6752 283.602 -57.6697 360.004 -20.5498 405.429C3.33926 434.692 52.0975 447.425 72.4338 431.018C89.9524 416.938 73.5364 391.471 93.9952 361.473C114.087 331.843 152.554 323.884 163.58 321.68Z" fill="#B7D1E8"/>
<path d="M105.756 163.979C65.5733 125.778 17.4276 95.9024 -35.0058 77.7814C-50.3193 72.5165 -62.3251 69.3331 -78.4962 71.0473C-117.576 75.2102 -143.058 111.085 -143.793 148.919C-144.283 174.998 -135.34 200.221 -125.294 224.219C-115.249 248.217 -104.468 274.051 -98.465 300.131C-93.4422 322.415 -93.0746 351.066 -67.838 360.861C-40.0287 371.635 -15.527 351.31 9.34209 342.25C67.6559 321.19 98.2829 401.511 154.392 388.777C241.005 369.064 184.284 261.195 153.289 218.219C139.201 198.751 123.275 180.63 105.756 163.979Z" fill="url(#paint6_linear_160_952)"/>
<path d="M130.993 123.451C129.522 121.615 127.807 119.9 125.847 118.431C122.907 116.35 119.599 114.636 116.047 113.778C109.921 112.187 103.796 113.901 97.6704 112.799C95.0977 112.309 91.9125 111.452 89.5849 110.105C85.0521 107.289 71.8212 81.3321 61.7756 93.8209C58.2228 98.1063 56.7527 104.106 57.8553 109.616C58.8353 114.023 61.653 118.186 66.5534 118.554C68.881 118.676 71.3312 118.064 73.6588 117.697C75.4964 117.452 80.1518 115.737 81.8669 116.839C86.5222 120.023 93.9951 142.919 104.286 150.51C110.166 154.918 118.129 156.632 124.99 153.449C131.605 150.51 135.525 143.898 135.525 136.797C135.525 131.777 133.81 127.247 130.993 123.451Z" fill="#D2E2F1" fill-opacity="0.59"/>
<path d="M254.481 353.759C258.202 353.759 261.219 350.744 261.219 347.025C261.219 343.306 258.202 340.291 254.481 340.291C250.759 340.291 247.743 343.306 247.743 347.025C247.743 350.744 250.759 353.759 254.481 353.759Z" fill="#E4EEF7"/>
<path d="M231.817 373.962C234.185 373.962 236.104 372.043 236.104 369.676C236.104 367.31 234.185 365.391 231.817 365.391C229.449 365.391 227.529 367.31 227.529 369.676C227.529 372.043 229.449 373.962 231.817 373.962Z" stroke="#E4EEF7" stroke-width="1.2727" stroke-miterlimit="10"/>
<path d="M105.021 433.345C108.742 433.345 111.759 430.33 111.759 426.611C111.759 422.891 108.742 419.876 105.021 419.876C101.3 419.876 98.283 422.891 98.283 426.611C98.283 430.33 101.3 433.345 105.021 433.345Z" stroke="#E4EEF7" stroke-width="2" stroke-miterlimit="10"/>
<path d="M98.773 390.613C102.448 391.226 104.898 394.654 104.408 398.327C103.796 402 100.366 404.449 96.6904 403.959" stroke="#E4EEF7" stroke-width="2" stroke-miterlimit="10"/>
<path d="M182.813 404.082L174.85 400.409L170.563 408.122L162.6 404.327L158.434 412.04L150.349 408.367L146.184 416.081" stroke="#E4EEF7" stroke-width="3.0845" stroke-miterlimit="10"/>
<path d="M226.059 348.127L222.506 344.699L219.076 341.393L223.731 340.046L228.386 338.699L227.161 343.474L226.059 348.127Z" stroke="#E4EEF7" stroke-miterlimit="10"/>
<path d="M127.072 412.408L123.03 409.592L118.007 409.469L120.824 405.429L120.947 400.409L124.99 403.225L130.012 403.347L127.195 407.388L127.072 412.408Z" fill="#E4EEF7"/>
</g>
<rect x="42.5" y="139.5" width="632" height="45" fill="white" stroke="#AAAAAA" stroke-width="3"/>
<circle cx="63" cy="162" r="6" fill="#EA0C0C"/>
<circle cx="83" cy="162" r="6" fill="#FF7A00"/>
<circle cx="103" cy="162" r="6" fill="#0AE012"/>
<rect x="126.5" y="151.5" width="532" height="21" rx="10.5" fill="white" stroke="#AAAAAA" stroke-width="3"/>
<path d="M143.149 166L141.371 158.846H142.491L143.59 163.606C143.609 163.685 143.627 163.776 143.646 163.879C143.665 163.977 143.681 164.077 143.695 164.18C143.718 164.054 143.737 163.947 143.751 163.858C143.77 163.765 143.791 163.669 143.814 163.571L144.857 158.846H145.774L146.824 163.585C146.847 163.678 146.871 163.781 146.894 163.893C146.917 164 146.938 164.115 146.957 164.236C146.971 164.119 146.987 164.01 147.006 163.907C147.029 163.8 147.053 163.692 147.076 163.585L148.133 158.846H149.26L147.475 166H146.481L145.445 161.45C145.426 161.357 145.403 161.245 145.375 161.114C145.352 160.983 145.328 160.855 145.305 160.729C145.282 160.864 145.256 160.995 145.228 161.121C145.205 161.242 145.184 161.345 145.165 161.429L144.157 166H143.149ZM151.776 166L149.998 158.846H151.118L152.217 163.606C152.236 163.685 152.254 163.776 152.273 163.879C152.292 163.977 152.308 164.077 152.322 164.18C152.345 164.054 152.364 163.947 152.378 163.858C152.397 163.765 152.418 163.669 152.441 163.571L153.484 158.846H154.401L155.451 163.585C155.474 163.678 155.498 163.781 155.521 163.893C155.544 164 155.565 164.115 155.584 164.236C155.598 164.119 155.614 164.01 155.633 163.907C155.656 163.8 155.68 163.692 155.703 163.585L156.76 158.846H157.887L156.102 166H155.108L154.072 161.45C154.053 161.357 154.03 161.245 154.002 161.114C153.979 160.983 153.955 160.855 153.932 160.729C153.909 160.864 153.883 160.995 153.855 161.121C153.832 161.242 153.811 161.345 153.792 161.429L152.784 166H151.776ZM160.403 166L158.625 158.846H159.745L160.844 163.606C160.863 163.685 160.881 163.776 160.9 163.879C160.919 163.977 160.935 164.077 160.949 164.18C160.972 164.054 160.991 163.947 161.005 163.858C161.024 163.765 161.045 163.669 161.068 163.571L162.111 158.846H163.028L164.078 163.585C164.101 163.678 164.125 163.781 164.148 163.893C164.171 164 164.192 164.115 164.211 164.236C164.225 164.119 164.241 164.01 164.26 163.907C164.283 163.8 164.307 163.692 164.33 163.585L165.387 158.846H166.514L164.729 166H163.735L162.699 161.45C162.68 161.357 162.657 161.245 162.629 161.114C162.606 160.983 162.582 160.855 162.559 160.729C162.536 160.864 162.51 160.995 162.482 161.121C162.459 161.242 162.438 161.345 162.419 161.429L161.411 166H160.403ZM171.193 166.189C170.922 166.189 170.698 166.096 170.521 165.909C170.344 165.718 170.255 165.501 170.255 165.258C170.255 165.015 170.344 164.798 170.521 164.607C170.698 164.416 170.922 164.32 171.193 164.32C171.459 164.32 171.681 164.416 171.858 164.607C172.04 164.798 172.131 165.015 172.131 165.258C172.131 165.501 172.04 165.718 171.858 165.909C171.681 166.096 171.459 166.189 171.193 166.189ZM176.222 166V164.985H177.713V159.861H176.222V158.846H178.812V160.449L178.728 160.246C178.877 159.924 179.103 159.646 179.407 159.413C179.715 159.18 180.058 159 180.436 158.874C180.818 158.743 181.199 158.678 181.577 158.678C181.941 158.678 182.251 158.711 182.508 158.776C182.764 158.841 182.97 158.921 183.124 159.014V161.471H181.983V159.35L182.333 159.896C182.216 159.863 182.09 159.84 181.955 159.826C181.824 159.812 181.686 159.805 181.542 159.805C181.07 159.805 180.632 159.884 180.226 160.043C179.82 160.197 179.493 160.426 179.246 160.729C179.003 161.032 178.882 161.403 178.882 161.842V164.985H180.989V166H176.222ZM188.594 166.168C187.908 166.168 187.32 166 186.83 165.664C186.344 165.328 185.973 164.875 185.717 164.306C185.46 163.737 185.332 163.107 185.332 162.416C185.332 161.627 185.467 160.955 185.738 160.4C186.008 159.84 186.386 159.413 186.872 159.119C187.362 158.825 187.936 158.678 188.594 158.678C189.13 158.678 189.623 158.799 190.071 159.042C190.523 159.285 190.885 159.66 191.156 160.169C191.426 160.673 191.562 161.322 191.562 162.115C191.562 162.204 191.559 162.313 191.555 162.444C191.555 162.57 191.545 162.715 191.527 162.878H186.228V161.87H190.421C190.411 161.301 190.309 160.86 190.113 160.547C189.921 160.23 189.686 160.008 189.406 159.882C189.126 159.756 188.855 159.693 188.594 159.693C187.866 159.693 187.331 159.924 186.991 160.386C186.65 160.843 186.48 161.457 186.48 162.227C186.48 163.123 186.669 163.83 187.047 164.348C187.425 164.866 187.952 165.125 188.629 165.125C188.913 165.125 189.196 165.081 189.476 164.992C189.756 164.899 190.031 164.745 190.302 164.53L190.946 165.279C190.647 165.536 190.295 165.748 189.889 165.916C189.487 166.084 189.056 166.168 188.594 166.168ZM194.211 166V158.846H195.352V160.183L195.17 159.938C195.282 159.677 195.44 159.453 195.646 159.266C195.851 159.079 196.094 158.935 196.374 158.832C196.654 158.729 196.964 158.678 197.305 158.678C197.874 158.678 198.355 158.788 198.747 159.007C199.143 159.226 199.442 159.576 199.643 160.057C199.848 160.533 199.951 161.158 199.951 161.933V166H198.817V161.716C198.817 160.983 198.653 160.468 198.327 160.169C198.005 159.87 197.606 159.721 197.13 159.721C196.784 159.721 196.476 159.782 196.206 159.903C195.94 160.024 195.73 160.227 195.576 160.512C195.426 160.797 195.352 161.189 195.352 161.688V166H194.211ZM205.484 166.168C204.849 166.168 204.301 166.016 203.839 165.713C203.377 165.405 203.022 164.971 202.775 164.411C202.527 163.851 202.404 163.186 202.404 162.416C202.404 161.632 202.53 160.962 202.782 160.407C203.034 159.847 203.388 159.42 203.846 159.126C204.308 158.827 204.849 158.678 205.47 158.678C205.936 158.678 206.326 158.746 206.639 158.881C206.951 159.016 207.21 159.173 207.416 159.35V156.445L208.557 155.892V166H207.416V165.398C207.224 165.603 206.972 165.783 206.66 165.937C206.352 166.091 205.96 166.168 205.484 166.168ZM205.624 165.118C206.02 165.118 206.37 165.032 206.674 164.859C206.982 164.682 207.229 164.43 207.416 164.103V160.673C207.28 160.454 207.068 160.241 206.779 160.036C206.489 159.826 206.102 159.721 205.617 159.721C204.959 159.721 204.455 159.954 204.105 160.421C203.755 160.883 203.58 161.548 203.58 162.416C203.58 162.925 203.661 163.384 203.825 163.795C203.988 164.201 204.221 164.523 204.525 164.761C204.833 164.999 205.199 165.118 205.624 165.118ZM214.475 166.168C213.789 166.168 213.201 166 212.711 165.664C212.225 165.328 211.854 164.875 211.598 164.306C211.341 163.737 211.213 163.107 211.213 162.416C211.213 161.627 211.348 160.955 211.619 160.4C211.889 159.84 212.267 159.413 212.753 159.119C213.243 158.825 213.817 158.678 214.475 158.678C215.011 158.678 215.504 158.799 215.952 159.042C216.404 159.285 216.766 159.66 217.037 160.169C217.307 160.673 217.443 161.322 217.443 162.115C217.443 162.204 217.44 162.313 217.436 162.444C217.436 162.57 217.426 162.715 217.408 162.878H212.109V161.87H216.302C216.292 161.301 216.19 160.86 215.994 160.547C215.802 160.23 215.567 160.008 215.287 159.882C215.007 159.756 214.736 159.693 214.475 159.693C213.747 159.693 213.212 159.924 212.872 160.386C212.531 160.843 212.361 161.457 212.361 162.227C212.361 163.123 212.55 163.83 212.928 164.348C213.306 164.866 213.833 165.125 214.51 165.125C214.794 165.125 215.077 165.081 215.357 164.992C215.637 164.899 215.912 164.745 216.183 164.53L216.827 165.279C216.528 165.536 216.176 165.748 215.77 165.916C215.368 166.084 214.937 166.168 214.475 166.168ZM219.357 166V164.985H220.848V159.861H219.357V158.846H221.947V160.449L221.863 160.246C222.012 159.924 222.238 159.646 222.542 159.413C222.85 159.18 223.193 159 223.571 158.874C223.953 158.743 224.334 158.678 224.712 158.678C225.076 158.678 225.386 158.711 225.643 158.776C225.899 158.841 226.105 158.921 226.259 159.014V161.471H225.118V159.35L225.468 159.896C225.351 159.863 225.225 159.84 225.09 159.826C224.959 159.812 224.821 159.805 224.677 159.805C224.205 159.805 223.767 159.884 223.361 160.043C222.955 160.197 222.628 160.426 222.381 160.729C222.138 161.032 222.017 161.403 222.017 161.842V164.985H224.124V166H219.357ZM227.984 166V158.846H229.104V160.169L228.936 160.057C229.066 159.618 229.251 159.28 229.489 159.042C229.727 158.799 230.035 158.678 230.413 158.678C230.819 158.678 231.136 158.795 231.365 159.028C231.593 159.257 231.75 159.506 231.834 159.777C231.997 159.478 232.209 159.222 232.471 159.007C232.737 158.788 233.061 158.678 233.444 158.678C234.036 158.678 234.475 158.872 234.76 159.259C235.044 159.646 235.187 160.269 235.187 161.128V166H234.06V161.618C234.06 160.988 234.006 160.519 233.899 160.211C233.796 159.898 233.565 159.742 233.206 159.742C232.954 159.742 232.751 159.831 232.597 160.008C232.443 160.181 232.331 160.416 232.261 160.715C232.191 161.009 232.156 161.336 232.156 161.695V166H231.029V161.471C231.029 161.168 231.01 160.885 230.973 160.624C230.935 160.358 230.858 160.146 230.742 159.987C230.625 159.824 230.448 159.742 230.21 159.742C229.962 159.742 229.757 159.831 229.594 160.008C229.43 160.181 229.307 160.416 229.223 160.715C229.143 161.009 229.104 161.336 229.104 161.695V166H227.984ZM239.739 166.168C239.24 166.168 238.797 166.079 238.409 165.902C238.027 165.72 237.726 165.452 237.506 165.097C237.292 164.738 237.184 164.29 237.184 163.753C237.184 163.202 237.315 162.754 237.576 162.409C237.838 162.059 238.176 161.802 238.591 161.639C239.007 161.471 239.448 161.387 239.914 161.387C240.264 161.387 240.596 161.422 240.908 161.492C241.226 161.562 241.548 161.686 241.874 161.863V161.303C241.874 160.864 241.804 160.528 241.664 160.295C241.524 160.057 241.338 159.894 241.104 159.805C240.871 159.716 240.617 159.672 240.341 159.672C239.959 159.672 239.56 159.751 239.144 159.91C238.734 160.064 238.377 160.237 238.073 160.428L237.744 159.469C238.057 159.278 238.451 159.098 238.927 158.93C239.408 158.762 239.917 158.678 240.453 158.678C240.724 158.678 241.004 158.713 241.293 158.783C241.583 158.848 241.853 158.972 242.105 159.154C242.357 159.336 242.56 159.593 242.714 159.924C242.868 160.251 242.945 160.678 242.945 161.205V166H241.874V165.335C241.608 165.573 241.296 165.771 240.936 165.93C240.582 166.089 240.183 166.168 239.739 166.168ZM239.886 165.174C240.339 165.174 240.731 165.069 241.062 164.859C241.394 164.644 241.664 164.413 241.874 164.166V162.892C241.65 162.752 241.375 162.631 241.048 162.528C240.722 162.425 240.39 162.374 240.054 162.374C239.574 162.374 239.154 162.486 238.794 162.71C238.435 162.929 238.255 163.277 238.255 163.753C238.255 164.178 238.395 164.521 238.675 164.782C238.96 165.043 239.364 165.174 239.886 165.174ZM245.237 166V164.985H246.728V159.861H245.237V158.846H247.827V160.449L247.743 160.246C247.893 159.924 248.119 159.646 248.422 159.413C248.73 159.18 249.073 159 249.451 158.874C249.834 158.743 250.214 158.678 250.592 158.678C250.956 158.678 251.267 158.711 251.523 158.776C251.78 158.841 251.985 158.921 252.139 159.014V161.471H250.998V159.35L251.348 159.896C251.232 159.863 251.106 159.84 250.97 159.826C250.84 159.812 250.702 159.805 250.557 159.805C250.086 159.805 249.647 159.884 249.241 160.043C248.835 160.197 248.509 160.426 248.261 160.729C248.019 161.032 247.897 161.403 247.897 161.842V164.985H250.004V166H245.237ZM254.613 166V156.438L255.754 155.892V166H254.613ZM255.684 163.004V161.688L258.379 158.846H259.709L255.684 163.004ZM259.289 166L256.958 161.415L257.77 160.589L260.542 166H259.289ZM266.089 166.189C265.819 166.189 265.595 166.096 265.417 165.909C265.24 165.718 265.151 165.501 265.151 165.258C265.151 165.015 265.24 164.798 265.417 164.607C265.595 164.416 265.819 164.32 266.089 164.32C266.355 164.32 266.577 164.416 266.754 164.607C266.936 164.798 267.027 165.015 267.027 165.258C267.027 165.501 266.936 165.718 266.754 165.909C266.577 166.096 266.355 166.189 266.089 166.189ZM274.877 166.168C273.953 166.168 273.221 165.841 272.679 165.188C272.143 164.535 271.874 163.615 271.874 162.43C271.874 161.646 271.998 160.974 272.245 160.414C272.493 159.854 272.847 159.425 273.309 159.126C273.771 158.827 274.324 158.678 274.968 158.678C275.57 158.678 276.088 158.813 276.522 159.084C276.961 159.355 277.283 159.756 277.488 160.288L276.438 160.68C276.322 160.405 276.144 160.176 275.906 159.994C275.668 159.812 275.346 159.721 274.94 159.721C274.278 159.721 273.797 159.966 273.498 160.456C273.2 160.941 273.05 161.599 273.05 162.43C273.05 163.275 273.202 163.935 273.505 164.411C273.809 164.882 274.278 165.118 274.912 165.118C275.314 165.118 275.652 165.022 275.927 164.831C276.207 164.64 276.408 164.376 276.529 164.04L277.572 164.411C277.39 164.962 277.064 165.393 276.592 165.706C276.121 166.014 275.549 166.168 274.877 166.168ZM283.343 166.168C282.676 166.168 282.093 166.021 281.593 165.727C281.094 165.433 280.704 165.008 280.424 164.453C280.149 163.893 280.011 163.219 280.011 162.43C280.011 161.651 280.149 160.981 280.424 160.421C280.704 159.861 281.094 159.432 281.593 159.133C282.093 158.83 282.676 158.678 283.343 158.678C284.015 158.678 284.601 158.825 285.1 159.119C285.604 159.413 285.994 159.84 286.269 160.4C286.545 160.96 286.682 161.632 286.682 162.416C286.682 163.195 286.545 163.865 286.269 164.425C285.994 164.985 285.604 165.417 285.1 165.72C284.601 166.019 284.015 166.168 283.343 166.168ZM283.343 165.118C284.034 165.118 284.566 164.878 284.939 164.397C285.317 163.916 285.506 163.256 285.506 162.416C285.506 161.581 285.324 160.923 284.96 160.442C284.596 159.961 284.057 159.721 283.343 159.721C282.639 159.721 282.102 159.957 281.733 160.428C281.365 160.895 281.18 161.562 281.18 162.43C281.18 163.261 281.365 163.916 281.733 164.397C282.102 164.878 282.639 165.118 283.343 165.118ZM288.372 166V158.846H289.492V160.169L289.324 160.057C289.455 159.618 289.639 159.28 289.877 159.042C290.115 158.799 290.423 158.678 290.801 158.678C291.207 158.678 291.525 158.795 291.753 159.028C291.982 159.257 292.138 159.506 292.222 159.777C292.386 159.478 292.598 159.222 292.859 159.007C293.125 158.788 293.45 158.678 293.832 158.678C294.425 158.678 294.864 158.872 295.148 159.259C295.433 159.646 295.575 160.269 295.575 161.128V166H294.448V161.618C294.448 160.988 294.395 160.519 294.287 160.211C294.185 159.898 293.954 159.742 293.594 159.742C293.342 159.742 293.139 159.831 292.985 160.008C292.831 160.181 292.719 160.416 292.649 160.715C292.579 161.009 292.544 161.336 292.544 161.695V166H291.417V161.471C291.417 161.168 291.399 160.885 291.361 160.624C291.324 160.358 291.247 160.146 291.13 159.987C291.014 159.824 290.836 159.742 290.598 159.742C290.351 159.742 290.146 159.831 289.982 160.008C289.819 160.181 289.695 160.416 289.611 160.715C289.532 161.009 289.492 161.336 289.492 161.695V166H288.372Z" fill="#767676"/>
</g>
<rect x="1059" y="464" width="407" height="849" rx="52" fill="white"/>
<path fill-rule="evenodd" clip-rule="evenodd" d="M1197 524C1200.87 524 1204 520.866 1204 517C1204 513.134 1200.87 510 1197 510C1193.13 510 1190 513.134 1190 517C1190 520.866 1193.13 524 1197 524Z" fill="#B746CC"/>
<path d="M1224 517C1224 515.343 1225.34 514 1227 514H1299C1300.66 514 1302 515.343 1302 517C1302 518.657 1300.66 520 1299 520H1227C1225.34 520 1224 518.657 1224 517Z" fill="#B746CC"/>
<g clip-path="url(#clip2_160_952)">
<rect width="375" height="667" transform="translate(1075 556)" fill="#EEEEEE"/>
<rect x="1038" y="452" width="448" height="875" rx="185" fill="url(#paint7_linear_160_952)"/>
<path d="M1120.44 785.654V805.495C1120.44 806.256 1120.13 806.986 1119.6 807.523C1119.06 808.061 1118.33 808.363 1117.57 808.363C1116.81 808.363 1116.08 808.061 1115.54 807.523C1115 806.986 1114.7 806.256 1114.7 805.495V785.681C1115.5 786.265 1116.46 786.59 1117.44 786.614C1118.52 786.645 1119.58 786.306 1120.44 785.654ZM1144.86 779.918C1144.13 779.918 1143.43 780.208 1142.92 780.722C1142.4 781.237 1142.12 781.935 1142.12 782.663V786.12C1142.12 786.881 1142.42 787.611 1142.96 788.148C1143.49 788.686 1144.22 788.988 1144.98 788.988C1145.74 788.988 1146.47 788.686 1147.01 788.148C1147.55 787.611 1147.85 786.881 1147.85 786.12V782.8C1147.87 782.406 1147.81 782.013 1147.66 781.646C1147.52 781.279 1147.3 780.948 1147.01 780.675C1146.73 780.401 1146.39 780.192 1146.02 780.062C1145.65 779.931 1145.25 779.882 1144.86 779.918ZM1108.47 793.173C1107.48 793.144 1106.53 792.819 1105.73 792.24V812.137C1105.73 812.901 1106.03 813.634 1106.57 814.174C1107.11 814.715 1107.84 815.018 1108.61 815.018C1109.37 815.018 1110.1 814.715 1110.64 814.174C1111.19 813.634 1111.49 812.901 1111.49 812.137V792.378C1110.59 792.957 1109.54 793.236 1108.47 793.173ZM1135.91 773.963C1135.54 773.944 1135.17 774.002 1134.82 774.131C1134.47 774.261 1134.15 774.46 1133.88 774.717C1133.61 774.974 1133.4 775.282 1133.25 775.625C1133.11 775.967 1133.03 776.335 1133.03 776.707V791.993C1133.03 792.758 1133.34 793.491 1133.88 794.031C1134.42 794.571 1135.15 794.875 1135.91 794.875C1136.68 794.875 1137.41 794.571 1137.95 794.031C1138.49 793.491 1138.79 792.758 1138.79 791.993V776.9C1138.82 776.504 1138.75 776.108 1138.61 775.739C1138.46 775.37 1138.24 775.037 1137.95 774.763C1137.66 774.489 1137.32 774.281 1136.94 774.152C1136.57 774.024 1136.17 773.978 1135.78 774.018L1135.91 773.963ZM1126.8 779.836C1125.77 779.829 1124.76 779.503 1123.92 778.903V798.854C1123.92 799.618 1124.22 800.351 1124.76 800.892C1125.3 801.432 1126.04 801.736 1126.8 801.736C1127.57 801.736 1128.3 801.432 1128.84 800.892C1129.38 800.351 1129.68 799.618 1129.68 798.854V778.93C1128.81 779.579 1127.75 779.917 1126.66 779.891L1126.8 779.836ZM1102.24 795.122V739.385C1102.23 738.705 1101.96 738.056 1101.48 737.578C1100.99 737.101 1100.34 736.832 1099.66 736.833H1099.06C1098.38 736.832 1097.73 737.101 1097.24 737.578C1096.76 738.056 1096.48 738.705 1096.48 739.385V795.122C1096.48 795.806 1096.75 796.462 1097.23 796.946C1097.72 797.43 1098.37 797.701 1099.06 797.701H1099.66C1100.34 797.701 1101 797.43 1101.48 796.946C1101.97 796.462 1102.24 795.806 1102.24 795.122ZM1108.77 791.06H1108.17C1107.48 791.06 1106.83 790.789 1106.34 790.305C1105.86 789.821 1105.59 789.165 1105.59 788.481V746.026C1105.6 745.347 1105.87 744.697 1106.35 744.22C1106.84 743.742 1107.49 743.474 1108.17 743.474H1108.77C1109.45 743.474 1110.1 743.742 1110.59 744.22C1111.07 744.697 1111.34 745.347 1111.35 746.026V788.535C1111.35 789.22 1111.08 789.876 1110.6 790.36C1110.11 790.843 1109.46 791.115 1108.77 791.115V791.06ZM1117.86 784.529H1117.22C1116.55 784.529 1115.9 784.26 1115.42 783.781C1114.94 783.303 1114.67 782.654 1114.67 781.977V752.612C1114.67 752.275 1114.73 751.94 1114.86 751.627C1114.98 751.314 1115.17 751.03 1115.41 750.79C1115.65 750.55 1115.93 750.36 1116.24 750.23C1116.55 750.1 1116.89 750.033 1117.22 750.033H1117.86C1118.53 750.04 1119.18 750.315 1119.66 750.798C1120.14 751.281 1120.41 751.933 1120.41 752.612V781.977C1120.41 782.654 1120.14 783.303 1119.66 783.781C1119.18 784.26 1118.53 784.529 1117.86 784.529ZM1126.94 777.805H1126.36C1125.68 777.805 1125.03 777.537 1124.55 777.059C1124.07 776.581 1123.79 775.932 1123.78 775.253V759.446C1123.76 759.093 1123.81 758.74 1123.93 758.408C1124.05 758.076 1124.24 757.771 1124.48 757.514C1124.72 757.257 1125.01 757.052 1125.34 756.912C1125.66 756.772 1126.01 756.701 1126.36 756.701H1126.97C1127.65 756.701 1128.31 756.973 1128.79 757.457C1129.27 757.941 1129.55 758.597 1129.55 759.281V775.198C1129.55 775.539 1129.49 775.878 1129.36 776.194C1129.23 776.51 1129.04 776.797 1128.8 777.04C1128.56 777.282 1128.28 777.475 1127.96 777.606C1127.65 777.738 1127.31 777.805 1126.97 777.805H1126.94ZM1136.05 771.905H1135.45C1134.76 771.905 1134.11 771.633 1133.62 771.149C1133.14 770.666 1132.87 770.009 1132.87 769.325V765.236C1132.87 764.557 1133.15 763.908 1133.63 763.43C1134.12 762.952 1134.77 762.684 1135.45 762.684H1136.05C1136.73 762.684 1137.38 762.952 1137.86 763.43C1138.35 763.908 1138.62 764.557 1138.63 765.236V769.325C1138.63 770.005 1138.36 770.657 1137.88 771.14C1137.41 771.623 1136.76 771.898 1136.08 771.905H1136.05Z" fill="white"/>
<path d="M1171.12 780L1165.84 770.8H1162.8V780H1156.4V752H1167.6C1170.27 752 1172.53 752.933 1174.4 754.8C1176.27 756.667 1177.2 758.933 1177.2 761.6C1177.2 763.307 1176.72 764.893 1175.76 766.36C1174.83 767.8 1173.59 768.92 1172.04 769.72L1178 780H1171.12ZM1162.8 758V765.2H1167.6C1168.48 765.2 1169.23 764.853 1169.84 764.16C1170.48 763.467 1170.8 762.613 1170.8 761.6C1170.8 760.587 1170.48 759.733 1169.84 759.04C1169.23 758.347 1168.48 758 1167.6 758H1162.8ZM1187.41 773.84H1198.61V780H1181.01V752H1198.41V758.16H1187.41V762.8H1197.41V768.88H1187.41V773.84ZM1217.82 752H1224.22V780H1219.42L1208.62 764.8V780H1202.22V752H1207.02L1217.82 767.2V752ZM1240.22 752C1244.08 752 1247.31 753.347 1249.9 756.04C1252.51 758.707 1253.82 762.027 1253.82 766C1253.82 769.973 1252.51 773.307 1249.9 776C1247.31 778.667 1244.08 780 1240.22 780H1229.02V752H1240.22ZM1240.22 773.84C1242.43 773.84 1244.22 773.133 1245.58 771.72C1246.96 770.28 1247.66 768.373 1247.66 766C1247.66 763.627 1246.96 761.733 1245.58 760.32C1244.22 758.88 1242.43 758.16 1240.22 758.16H1235.42V773.84H1240.22ZM1263.82 773.84H1275.02V780H1257.42V752H1274.82V758.16H1263.82V762.8H1273.82V768.88H1263.82V773.84ZM1293.35 780L1288.07 770.8H1285.03V780H1278.63V752H1289.83C1292.49 752 1294.76 752.933 1296.63 754.8C1298.49 756.667 1299.43 758.933 1299.43 761.6C1299.43 763.307 1298.95 764.893 1297.99 766.36C1297.05 767.8 1295.81 768.92 1294.27 769.72L1300.23 780H1293.35ZM1285.03 758V765.2H1289.83C1290.71 765.2 1291.45 764.853 1292.07 764.16C1292.71 763.467 1293.03 762.613 1293.03 761.6C1293.03 760.587 1292.71 759.733 1292.07 759.04C1291.45 758.347 1290.71 758 1289.83 758H1285.03ZM1304.32 788V751.2H1306.32V788H1304.32ZM1338.58 752V780H1336.46V755.12L1326.1 772.32H1325.74L1315.38 755.12V780H1313.26V752H1315.9L1325.9 768.56L1335.9 752H1338.58ZM1364.37 780L1361.65 772.88H1347.61L1344.89 780H1342.65L1353.53 752H1355.77L1366.61 780H1364.37ZM1348.41 770.88H1360.89L1354.65 754.6L1348.41 770.88ZM1388.36 780L1381.64 768.52H1372.8V780H1370.68V752H1381.72C1383.99 752 1385.94 752.813 1387.56 754.44C1389.19 756.067 1390 758.013 1390 760.28C1390 762.173 1389.42 763.853 1388.24 765.32C1387.1 766.787 1385.63 767.76 1383.84 768.24L1390.8 780H1388.36ZM1372.8 754V766.52H1381.72C1383.43 766.52 1384.88 765.92 1386.08 764.72C1387.28 763.493 1387.88 762.013 1387.88 760.28C1387.88 758.547 1387.28 757.067 1386.08 755.84C1384.88 754.613 1383.43 754 1381.72 754H1372.8ZM1414.21 780H1411.37L1397.33 766.2V780H1395.21V752H1397.33V765.04L1410.97 752H1413.81L1399.65 765.6L1414.21 780Z" fill="white"/>
</g>
<defs>
<linearGradient id="paint0_linear_160_952" x1="1844.46" y1="-226.5" x2="-945.724" y2="1190.83" gradientUnits="userSpaceOnUse">
<stop stop-color="#284FEB"/>
<stop offset="0.919792" stop-color="#FF00A8"/>
</linearGradient>
<linearGradient id="paint1_linear_160_952" x1="931.5" y1="59" x2="-128" y2="742.5" gradientUnits="userSpaceOnUse">
<stop stop-color="#7131C6"/>
<stop offset="1" stop-color="#EE5573"/>
</linearGradient>
<linearGradient id="paint2_linear_160_952" x1="330.661" y1="794.743" x2="654.065" y2="371.19" gradientUnits="userSpaceOnUse">
<stop stop-color="#7FACD6"/>
<stop offset="1" stop-color="#E9B7D4"/>
</linearGradient>
<linearGradient id="paint3_linear_160_952" x1="513.69" y1="553.663" x2="836.805" y2="676.526" gradientUnits="userSpaceOnUse">
<stop offset="2.54313e-07" stop-color="#E9B7D4"/>
<stop offset="1" stop-color="#7FACD6"/>
</linearGradient>
<linearGradient id="paint4_linear_160_952" x1="387.605" y1="492.453" x2="436.01" y2="543.481" gradientUnits="userSpaceOnUse">
<stop offset="2.54313e-07" stop-color="#E9B7D4"/>
<stop offset="1" stop-color="#7FACD6"/>
</linearGradient>
<linearGradient id="paint5_linear_160_952" x1="-168.487" y1="230.98" x2="275.657" y2="230.98" gradientUnits="userSpaceOnUse">
<stop stop-color="#959EC2"/>
<stop offset="1" stop-color="#D9E5FA"/>
</linearGradient>
<linearGradient id="paint6_linear_160_952" x1="-249.064" y1="161.059" x2="117.879" y2="269.407" gradientUnits="userSpaceOnUse">
<stop offset="2.34751e-07" stop-color="#E9B7D4"/>
<stop offset="0.9995" stop-color="#C0B9DB"/>
</linearGradient>
<linearGradient id="paint7_linear_160_952" x1="1468.29" y1="1236.94" x2="944.88" y2="1139.75" gradientUnits="userSpaceOnUse">
<stop stop-color="#7334D5"/>
<stop offset="0.392056" stop-color="#553FDE"/>
<stop offset="0.869667" stop-color="#D34DC8"/>
<stop offset="1" stop-color="#BF18BD"/>
</linearGradient>
<clipPath id="clip0_160_952">
<path d="M41 146C41 141.582 44.5817 138 49 138H668C672.418 138 676 141.582 676 146V600C676 604.418 672.418 608 668 608H49C44.5817 608 41 604.418 41 600V146Z" fill="white"/>
</clipPath>
<clipPath id="clip1_160_952">
<rect width="762" height="537" fill="white" transform="translate(-23 122)"/>
</clipPath>
<clipPath id="clip2_160_952">
<rect width="375" height="667" fill="white" transform="translate(1075 556)"/>
</clipPath>
</defs>
</svg>
