<svg width="1125" height="264" viewBox="0 0 1125 264" fill="none" xmlns="http://www.w3.org/2000/svg">
<path d="M253.92 150L235.44 117.8H224.8V150H202.4V52H241.6C250.933 52 258.867 55.2667 265.4 61.8C271.933 68.3333 275.2 76.2667 275.2 85.6C275.2 91.5733 273.52 97.1267 270.16 102.26C266.893 107.3 262.553 111.22 257.14 114.02L278 150H253.92ZM224.8 73V98.2H241.6C244.68 98.2 247.293 96.9867 249.44 94.56C251.68 92.1333 252.8 89.1467 252.8 85.6C252.8 82.0533 251.68 79.0667 249.44 76.64C247.293 74.2133 244.68 73 241.6 73H224.8ZM310.933 128.44H350.133V150H288.533V52H349.433V73.56H310.933V89.8H345.933V111.08H310.933V128.44ZM417.371 52H439.771V150H422.971L385.171 96.8V150H362.771V52H379.571L417.371 105.2V52ZM495.76 52C509.293 52 520.587 56.7133 529.64 66.14C538.787 75.4733 543.36 87.0933 543.36 101C543.36 114.907 538.787 126.573 529.64 136C520.587 145.333 509.293 150 495.76 150H456.56V52H495.76ZM495.76 128.44C503.507 128.44 509.76 125.967 514.52 121.02C519.373 115.98 521.8 109.307 521.8 101C521.8 92.6933 519.373 86.0667 514.52 81.12C509.76 76.08 503.507 73.56 495.76 73.56H478.96V128.44H495.76ZM578.355 128.44H617.555V150H555.955V52H616.855V73.56H578.355V89.8H613.355V111.08H578.355V128.44ZM681.713 150L663.233 117.8H652.593V150H630.193V52H669.393C678.726 52 686.66 55.2667 693.193 61.8C699.726 68.3333 702.993 76.2667 702.993 85.6C702.993 91.5733 701.313 97.1267 697.953 102.26C694.686 107.3 690.346 111.22 684.933 114.02L705.793 150H681.713ZM652.593 73V98.2H669.393C672.473 98.2 675.086 96.9867 677.233 94.56C679.473 92.1333 680.593 89.1467 680.593 85.6C680.593 82.0533 679.473 79.0667 677.233 76.64C675.086 74.2133 672.473 73 669.393 73H652.593ZM720.106 178V49.2H727.106V178H720.106ZM840.034 52V150H832.614V62.92L796.354 123.12H795.094L758.834 62.92V150H751.414V52H760.654L795.654 109.96L830.654 52H840.034ZM930.284 150L920.764 125.08H871.624L862.104 150H854.264L892.344 52H900.184L938.124 150H930.284ZM874.424 118.08H918.104L896.264 61.1L874.424 118.08ZM1014.27 150L990.751 109.82H959.811V150H952.391V52H991.031C998.964 52 1005.78 54.8467 1011.47 60.54C1017.16 66.2333 1020.01 73.0467 1020.01 80.98C1020.01 87.6067 1017.96 93.4867 1013.85 98.62C1009.84 103.753 1004.7 107.16 998.451 108.84L1022.81 150H1014.27ZM959.811 59V102.82H991.031C997.004 102.82 1002.09 100.72 1006.29 96.52C1010.49 92.2267 1012.59 87.0467 1012.59 80.98C1012.59 74.9133 1010.49 69.7333 1006.29 65.44C1002.09 61.1467 997.004 59 991.031 59H959.811ZM1104.75 150H1094.81L1045.67 101.7V150H1038.25V52H1045.67V97.64L1093.41 52H1103.35L1053.79 99.6L1104.75 150Z" fill="white"/>
<path d="M80.6715 164.849V231.846C80.6715 234.414 79.6541 236.877 77.8429 238.693C76.0327 240.509 73.5765 241.529 71.015 241.529C68.4544 241.529 65.9982 240.509 64.187 238.693C62.3758 236.877 61.3584 234.414 61.3584 231.846V164.942C64.0475 166.911 67.2706 168.01 70.5991 168.093C74.2271 168.196 77.782 167.052 80.6715 164.849ZM162.914 145.483C160.463 145.483 158.113 146.459 156.38 148.197C154.647 149.934 153.673 152.292 153.673 154.749V166.425C153.673 168.993 154.691 171.456 156.502 173.272C158.312 175.088 160.768 176.108 163.33 176.108C165.891 176.108 168.348 175.088 170.158 173.272C171.969 171.456 172.986 168.993 172.986 166.425V155.212C173.058 153.884 172.844 152.555 172.358 151.317C171.872 150.079 171.126 148.959 170.17 148.036C169.214 147.113 168.071 146.407 166.82 145.966C165.568 145.526 164.235 145.361 162.914 145.483ZM40.382 190.239C37.0569 190.139 33.838 189.042 31.1412 187.089V254.27C31.1412 256.851 32.1635 259.326 33.9831 261.151C35.8027 262.975 38.2706 264 40.844 264C43.4174 264 45.8853 262.975 47.7049 261.151C49.5246 259.326 50.5468 256.851 50.5468 254.27V187.552C47.5292 189.508 43.9688 190.45 40.382 190.239ZM132.789 125.375C131.537 125.312 130.286 125.505 129.111 125.943C127.936 126.38 126.862 127.053 125.954 127.919C125.046 128.786 124.325 129.829 123.831 130.984C123.339 132.14 123.085 133.384 123.086 134.641V186.255C123.086 188.836 124.108 191.311 125.928 193.135C127.748 194.96 130.216 195.985 132.789 195.985C135.363 195.985 137.831 194.96 139.65 193.135C141.47 191.311 142.492 188.836 142.492 186.255V135.29C142.566 133.952 142.35 132.615 141.858 131.37C141.366 130.124 140.612 129 139.646 128.076C138.679 127.151 137.525 126.447 136.262 126.013C134.999 125.578 133.656 125.424 132.327 125.56L132.789 125.375ZM102.11 145.205C98.629 145.181 95.2414 144.081 92.4073 142.054V209.421C92.4073 212.002 93.4293 214.477 95.2488 216.301C97.0692 218.126 99.5365 219.151 102.11 219.151C104.684 219.151 107.151 218.126 108.971 216.301C110.791 214.477 111.813 212.002 111.813 209.421V142.147C108.882 144.336 105.303 145.478 101.648 145.39L102.11 145.205ZM19.4055 196.819V8.61776C19.3812 6.32368 18.4553 4.13198 16.8289 2.51842C15.2026 0.904865 13.0071 -9.2657e-05 10.7192 7.11563e-09H8.68628C6.39846 -9.2657e-05 4.20296 0.904865 2.57659 2.51842C0.950224 4.13198 0.0243031 6.32368 0 8.61776V196.819C0 199.129 0.915202 201.344 2.54416 202.978C4.17311 204.612 6.38257 205.529 8.68628 205.529H10.7192C13.023 205.529 15.2324 204.612 16.8614 202.978C18.4904 201.344 19.4055 199.129 19.4055 196.819ZM41.3984 183.104H39.3655C37.0618 183.104 34.8523 182.187 33.2234 180.553C31.5944 178.92 30.6792 176.704 30.6792 174.394V31.0425C30.7036 28.7485 31.6294 26.5566 33.2558 24.9431C34.8822 23.3296 37.0777 22.4246 39.3655 22.4247H41.3984C43.6863 22.4246 45.8818 23.3296 47.5081 24.9431C49.1345 26.5566 50.0604 28.7485 50.0847 31.0425V174.579C50.0847 176.889 49.1695 179.105 47.5406 180.739C45.9116 182.372 43.7022 183.29 41.3984 183.29V183.104ZM71.9853 161.05H69.8599C67.5811 161.05 65.3948 160.142 63.7832 158.526C62.1716 156.91 61.266 154.718 61.266 152.432V53.2819C61.254 52.1424 61.4675 51.0118 61.8935 49.9555C62.3195 48.8992 62.9506 47.9383 63.7499 47.1282C64.5492 46.3181 65.501 45.6751 66.5499 45.2362C67.5987 44.7973 68.7233 44.5713 69.8599 44.5714H71.9853C74.2733 44.5959 76.4587 45.5243 78.0675 47.1552C79.6772 48.7861 80.5791 50.9877 80.5791 53.2819V152.432C80.5791 154.718 79.6735 156.91 78.062 158.526C76.4504 160.142 74.2649 161.05 71.9853 161.05ZM102.572 138.347H100.632C98.3435 138.347 96.1479 137.443 94.5215 135.829C92.8952 134.216 91.9692 132.024 91.9452 129.73V76.3552C91.8694 75.1654 92.0376 73.9728 92.4405 72.8507C92.8425 71.7294 93.4709 70.7018 94.285 69.8335C95.0991 68.9643 96.0823 68.273 97.1745 67.8005C98.2659 67.3288 99.4422 67.086 100.632 67.0888H102.664C104.968 67.0888 107.178 68.0062 108.807 69.6398C110.436 71.2735 111.351 73.4891 111.351 75.7992V129.544C111.363 130.696 111.147 131.839 110.716 132.906C110.285 133.974 109.648 134.945 108.839 135.764C108.031 136.582 107.07 137.232 106.01 137.676C104.95 138.12 103.813 138.347 102.664 138.347H102.572ZM133.251 118.425H131.218C128.915 118.425 126.705 117.507 125.076 115.874C123.447 114.24 122.532 112.024 122.532 109.714V95.9073C122.556 93.613 123.482 91.4215 125.108 89.8082C126.735 88.194 128.93 87.2896 131.218 87.2896H133.251C135.539 87.2896 137.735 88.194 139.361 89.8082C140.988 91.4215 141.914 93.613 141.938 95.9073V109.714C141.938 112.009 141.036 114.21 139.426 115.841C137.817 117.472 135.632 118.401 133.344 118.425H133.251Z" fill="white"/>
</svg>
