<svg width="1127" height="264" viewBox="0 0 1127 264" fill="none" xmlns="http://www.w3.org/2000/svg">
<path d="M255.92 174L237.44 141.8H226.8V174H204.4V76H243.6C252.933 76 260.867 79.2667 267.4 85.8C273.933 92.3333 277.2 100.267 277.2 109.6C277.2 115.573 275.52 121.127 272.16 126.26C268.893 131.3 264.553 135.22 259.14 138.02L280 174H255.92ZM226.8 97V122.2H243.6C246.68 122.2 249.293 120.987 251.44 118.56C253.68 116.133 254.8 113.147 254.8 109.6C254.8 106.053 253.68 103.067 251.44 100.64C249.293 98.2133 246.68 97 243.6 97H226.8ZM312.933 152.44H352.133V174H290.533V76H351.433V97.56H312.933V113.8H347.933V135.08H312.933V152.44ZM419.371 76H441.771V174H424.971L387.171 120.8V174H364.771V76H381.571L419.371 129.2V76ZM497.76 76C511.293 76 522.587 80.7133 531.64 90.14C540.787 99.4733 545.36 111.093 545.36 125C545.36 138.907 540.787 150.573 531.64 160C522.587 169.333 511.293 174 497.76 174H458.56V76H497.76ZM497.76 152.44C505.507 152.44 511.76 149.967 516.52 145.02C521.373 139.98 523.8 133.307 523.8 125C523.8 116.693 521.373 110.067 516.52 105.12C511.76 100.08 505.507 97.56 497.76 97.56H480.96V152.44H497.76ZM580.355 152.44H619.555V174H557.955V76H618.855V97.56H580.355V113.8H615.355V135.08H580.355V152.44ZM683.713 174L665.233 141.8H654.593V174H632.193V76H671.393C680.726 76 688.66 79.2667 695.193 85.8C701.726 92.3333 704.993 100.267 704.993 109.6C704.993 115.573 703.313 121.127 699.953 126.26C696.686 131.3 692.346 135.22 686.933 138.02L707.793 174H683.713ZM654.593 97V122.2H671.393C674.473 122.2 677.086 120.987 679.233 118.56C681.473 116.133 682.593 113.147 682.593 109.6C682.593 106.053 681.473 103.067 679.233 100.64C677.086 98.2133 674.473 97 671.393 97H654.593ZM722.106 202V73.2H729.106V202H722.106ZM842.034 76V174H834.614V86.92L798.354 147.12H797.094L760.834 86.92V174H753.414V76H762.654L797.654 133.96L832.654 76H842.034ZM932.284 174L922.764 149.08H873.624L864.104 174H856.264L894.344 76H902.184L940.124 174H932.284ZM876.424 142.08H920.104L898.264 85.1L876.424 142.08ZM1016.27 174L992.751 133.82H961.811V174H954.391V76H993.031C1000.96 76 1007.78 78.8467 1013.47 84.54C1019.16 90.2333 1022.01 97.0467 1022.01 104.98C1022.01 111.607 1019.96 117.487 1015.85 122.62C1011.84 127.753 1006.7 131.16 1000.45 132.84L1024.81 174H1016.27ZM961.811 83V126.82H993.031C999.004 126.82 1004.09 124.72 1008.29 120.52C1012.49 116.227 1014.59 111.047 1014.59 104.98C1014.59 98.9133 1012.49 93.7333 1008.29 89.44C1004.09 85.1467 999.004 83 993.031 83H961.811ZM1106.75 174H1096.81L1047.67 125.7V174H1040.25V76H1047.67V121.64L1095.41 76H1105.35L1055.79 123.6L1106.75 174Z" fill="white"/>
<path d="M80.6715 164.849V231.846C80.6715 234.414 79.6541 236.877 77.8429 238.692C76.0327 240.509 73.5765 241.529 71.015 241.529C68.4544 241.529 65.9982 240.509 64.187 238.692C62.3758 236.877 61.3584 234.414 61.3584 231.846V164.942C64.0475 166.911 67.2706 168.01 70.5991 168.093C74.2271 168.196 77.782 167.052 80.6715 164.849ZM162.914 145.483C160.463 145.483 158.113 146.459 156.38 148.197C154.647 149.934 153.673 152.292 153.673 154.749V166.425C153.673 168.993 154.691 171.456 156.502 173.272C158.312 175.088 160.768 176.108 163.33 176.108C165.891 176.108 168.348 175.088 170.158 173.272C171.969 171.456 172.986 168.993 172.986 166.425V155.212C173.058 153.884 172.844 152.555 172.358 151.317C171.872 150.079 171.126 148.959 170.17 148.036C169.214 147.114 168.071 146.407 166.82 145.966C165.568 145.526 164.235 145.361 162.914 145.483ZM40.382 190.239C37.0569 190.139 33.838 189.042 31.1412 187.089V254.27C31.1412 256.851 32.1635 259.326 33.9831 261.151C35.8027 262.975 38.2707 264 40.844 264C43.4174 264 45.8853 262.975 47.7049 261.151C49.5246 259.326 50.5468 256.851 50.5468 254.27V187.552C47.5292 189.508 43.9688 190.45 40.382 190.239ZM132.789 125.375C131.537 125.312 130.286 125.505 129.111 125.943C127.936 126.38 126.862 127.053 125.954 127.919C125.046 128.786 124.325 129.829 123.831 130.984C123.339 132.14 123.085 133.384 123.086 134.641V186.255C123.086 188.836 124.108 191.311 125.928 193.135C127.748 194.96 130.216 195.985 132.789 195.985C135.363 195.985 137.831 194.96 139.65 193.135C141.47 191.311 142.492 188.836 142.492 186.255V135.29C142.566 133.952 142.35 132.615 141.858 131.37C141.366 130.124 140.612 129 139.646 128.076C138.679 127.151 137.525 126.447 136.262 126.013C134.999 125.578 133.656 125.424 132.327 125.56L132.789 125.375ZM102.11 145.205C98.629 145.181 95.2414 144.081 92.4073 142.054V209.421C92.4073 212.002 93.4293 214.477 95.2488 216.301C97.0692 218.126 99.5365 219.151 102.11 219.151C104.684 219.151 107.151 218.126 108.971 216.301C110.791 214.477 111.813 212.002 111.813 209.421V142.147C108.882 144.336 105.303 145.478 101.648 145.39L102.11 145.205ZM19.4055 196.819V8.61776C19.3812 6.32368 18.4553 4.13198 16.8289 2.51842C15.2026 0.904865 13.0071 -9.2657e-05 10.7192 7.11563e-09H8.68628C6.39846 -9.2657e-05 4.20296 0.904865 2.57659 2.51842C0.950224 4.13198 0.0243031 6.32368 0 8.61776V196.819C0 199.129 0.915202 201.344 2.54416 202.978C4.17311 204.612 6.38257 205.529 8.68628 205.529H10.7192C13.023 205.529 15.2324 204.612 16.8614 202.978C18.4904 201.344 19.4055 199.129 19.4055 196.819ZM41.3984 183.104H39.3655C37.0618 183.104 34.8523 182.187 33.2234 180.553C31.5944 178.92 30.6792 176.704 30.6792 174.394V31.0425C30.7036 28.7485 31.6294 26.5566 33.2558 24.9431C34.8822 23.3296 37.0777 22.4246 39.3655 22.4247H41.3984C43.6863 22.4246 45.8818 23.3296 47.5081 24.9431C49.1345 26.5566 50.0604 28.7485 50.0847 31.0425V174.579C50.0847 176.889 49.1695 179.105 47.5406 180.739C45.9116 182.372 43.7022 183.29 41.3984 183.29V183.104ZM71.9853 161.05H69.8599C67.5811 161.05 65.3948 160.142 63.7832 158.526C62.1716 156.91 61.266 154.718 61.266 152.432V53.2819C61.254 52.1424 61.4675 51.0118 61.8935 49.9555C62.3195 48.8992 62.9506 47.9383 63.7499 47.1282C64.5492 46.3181 65.501 45.6751 66.5499 45.2362C67.5987 44.7973 68.7233 44.5713 69.8599 44.5714H71.9853C74.2733 44.5959 76.4587 45.5243 78.0675 47.1552C79.6772 48.7861 80.5791 50.9877 80.5791 53.2819V152.432C80.5791 154.718 79.6735 156.91 78.062 158.526C76.4504 160.142 74.2649 161.05 71.9853 161.05ZM102.572 138.347H100.632C98.3435 138.347 96.1479 137.443 94.5215 135.829C92.8952 134.216 91.9692 132.024 91.9452 129.73V76.3552C91.8694 75.1654 92.0376 73.9728 92.4405 72.8507C92.8425 71.7294 93.4709 70.7018 94.285 69.8335C95.0991 68.9643 96.0823 68.273 97.1745 67.8005C98.2659 67.3288 99.4422 67.086 100.632 67.0888H102.664C104.968 67.0888 107.178 68.0062 108.807 69.6398C110.436 71.2735 111.351 73.4891 111.351 75.7992V129.544C111.363 130.696 111.147 131.839 110.716 132.906C110.285 133.974 109.648 134.945 108.839 135.764C108.031 136.582 107.07 137.232 106.01 137.676C104.95 138.12 103.813 138.347 102.664 138.347H102.572ZM133.251 118.425H131.218C128.915 118.425 126.705 117.507 125.076 115.874C123.447 114.24 122.532 112.024 122.532 109.714V95.9073C122.556 93.613 123.482 91.4215 125.108 89.8082C126.735 88.194 128.93 87.2896 131.218 87.2896H133.251C135.539 87.2896 137.735 88.194 139.361 89.8082C140.988 91.4215 141.914 93.613 141.938 95.9073V109.714C141.938 112.009 141.036 114.21 139.426 115.841C137.817 117.472 135.632 118.401 133.344 118.425H133.251Z" fill="white"/>
</svg>
