<svg width="369" height="99" viewBox="0 0 369 99" fill="none" xmlns="http://www.w3.org/2000/svg">
<path d="M99.12 61L93.84 51.8H90.8V61H84.4V33H95.6C98.2667 33 100.533 33.9333 102.4 35.8C104.267 37.6667 105.2 39.9333 105.2 42.6C105.2 44.3067 104.72 45.8933 103.76 47.36C102.827 48.8 101.587 49.92 100.04 50.72L106 61H99.12ZM90.8 39V46.2H95.6C96.48 46.2 97.2267 45.8533 97.84 45.16C98.48 44.4667 98.8 43.6133 98.8 42.6C98.8 41.5867 98.48 40.7333 97.84 40.04C97.2267 39.3467 96.48 39 95.6 39H90.8ZM115.409 54.84H126.609V61H109.009V33H126.409V39.16H115.409V43.8H125.409V49.88H115.409V54.84ZM145.82 33H152.22V61H147.42L136.62 45.8V61H130.22V33H135.02L145.82 48.2V33ZM168.217 33C172.084 33 175.311 34.3467 177.897 37.04C180.511 39.7067 181.817 43.0267 181.817 47C181.817 50.9733 180.511 54.3067 177.897 57C175.311 59.6667 172.084 61 168.217 61H157.017V33H168.217ZM168.217 54.84C170.431 54.84 172.217 54.1333 173.577 52.72C174.964 51.28 175.657 49.3733 175.657 47C175.657 44.6267 174.964 42.7333 173.577 41.32C172.217 39.88 170.431 39.16 168.217 39.16H163.417V54.84H168.217ZM191.816 54.84H203.016V61H185.416V33H202.816V39.16H191.816V43.8H201.816V49.88H191.816V54.84ZM221.347 61L216.067 51.8H213.027V61H206.627V33H217.827C220.493 33 222.76 33.9333 224.627 35.8C226.493 37.6667 227.427 39.9333 227.427 42.6C227.427 44.3067 226.947 45.8933 225.987 47.36C225.053 48.8 223.813 49.92 222.267 50.72L228.227 61H221.347ZM213.027 39V46.2H217.827C218.707 46.2 219.453 45.8533 220.067 45.16C220.707 44.4667 221.027 43.6133 221.027 42.6C221.027 41.5867 220.707 40.7333 220.067 40.04C219.453 39.3467 218.707 39 217.827 39H213.027ZM232.316 69V32.2H234.316V69H232.316ZM266.581 33V61H264.461V36.12L254.101 53.32H253.741L243.381 36.12V61H241.261V33H243.901L253.901 49.56L263.901 33H266.581ZM292.367 61L289.647 53.88H275.607L272.887 61H270.647L281.527 33H283.767L294.607 61H292.367ZM276.407 51.88H288.887L282.647 35.6L276.407 51.88ZM316.363 61L309.643 49.52H300.803V61H298.683V33H309.723C311.99 33 313.936 33.8133 315.563 35.44C317.19 37.0667 318.003 39.0133 318.003 41.28C318.003 43.1733 317.416 44.8533 316.243 46.32C315.096 47.7867 313.63 48.76 311.843 49.24L318.803 61H316.363ZM300.803 35V47.52H309.723C311.43 47.52 312.883 46.92 314.083 45.72C315.283 44.4933 315.883 43.0133 315.883 41.28C315.883 39.5467 315.283 38.0667 314.083 36.84C312.883 35.6133 311.43 35 309.723 35H300.803ZM342.214 61H339.374L325.334 47.2V61H323.214V33H325.334V46.04L338.974 33H341.814L327.654 46.6L342.214 61Z" fill="black"/>
<path d="M39.4352 59.6539V79.4954C39.4352 80.2561 39.133 80.9855 38.5952 81.5231C38.0575 82.061 37.3281 82.3632 36.5674 82.3632C35.8069 82.3632 35.0775 82.061 34.5396 81.5231C34.0017 80.9855 33.6996 80.2561 33.6996 79.4954V59.6814C34.4982 60.2645 35.4554 60.59 36.4439 60.6145C37.5213 60.6452 38.577 60.3063 39.4352 59.6539ZM63.8596 53.9183C63.1318 53.9183 62.4337 54.2076 61.9191 54.7221C61.4046 55.2367 61.1153 55.9348 61.1153 56.6626V60.1205C61.1153 60.8812 61.4175 61.6106 61.9553 62.1483C62.493 62.6861 63.2224 62.9883 63.9831 62.9883C64.7438 62.9883 65.4733 62.6861 66.0109 62.1483C66.5488 61.6106 66.8509 60.8812 66.8509 60.1205V56.7999C66.8723 56.4063 66.8087 56.0128 66.6643 55.6461C66.52 55.2795 66.2985 54.948 66.0145 54.6746C65.7307 54.4013 65.3912 54.1922 65.0196 54.0616C64.6478 53.9312 64.2521 53.8824 63.8596 53.9183ZM27.47 67.1734C26.4825 67.1437 25.5265 66.8188 24.7256 66.2403V86.1366C24.7256 86.9009 25.0292 87.6339 25.5696 88.1743C26.11 88.7146 26.8429 89.0181 27.6072 89.0181C28.3714 89.0181 29.1043 88.7146 29.6447 88.1743C30.1851 87.6339 30.4887 86.9009 30.4887 86.1366V66.3775C29.5926 66.9568 28.5352 67.2357 27.47 67.1734ZM54.9131 47.9631C54.5413 47.9445 54.1697 48.0018 53.8206 48.1314C53.4718 48.2609 53.1529 48.4601 52.8832 48.7167C52.6137 48.9736 52.3994 49.2823 52.2528 49.6246C52.1065 49.9668 52.0311 50.3353 52.0316 50.7075V65.9933C52.0316 66.7576 52.3351 67.4906 52.8755 68.031C53.4161 68.5713 54.1489 68.8748 54.9131 68.8748C55.6774 68.8748 56.4104 68.5713 56.9508 68.031C57.4912 67.4906 57.7947 66.7576 57.7947 65.9933V50.8996C57.8166 50.5036 57.7524 50.1076 57.6064 49.7387C57.4604 49.3699 57.2365 49.037 56.9494 48.7631C56.6624 48.4892 56.3196 48.2807 55.9445 48.1522C55.5693 48.0235 55.1706 47.9777 54.7759 48.018L54.9131 47.9631ZM45.802 53.836C44.7682 53.8289 43.7622 53.5031 42.9205 52.9029V72.8541C42.9205 73.6184 43.224 74.3514 43.7644 74.8918C44.305 75.4321 45.0377 75.7356 45.802 75.7356C46.5663 75.7356 47.299 75.4321 47.8397 74.8918C48.38 74.3514 48.6835 73.6184 48.6835 72.8541V52.9304C47.813 53.5788 46.7502 53.9169 45.6648 53.8909L45.802 53.836ZM21.2404 69.1218V13.3847C21.2331 12.7053 20.9582 12.0562 20.4752 11.5784C19.9922 11.1005 19.3401 10.8325 18.6607 10.8325H18.057C17.3775 10.8325 16.7255 11.1005 16.2425 11.5784C15.7595 12.0562 15.4845 12.7053 15.4773 13.3847V69.1218C15.4773 69.806 15.7491 70.4622 16.2329 70.946C16.7166 71.4298 17.3728 71.7015 18.057 71.7015H18.6607C19.3449 71.7015 20.001 71.4298 20.4848 70.946C20.9686 70.4622 21.2404 69.806 21.2404 69.1218ZM27.7718 65.0602H27.1681C26.4839 65.0602 25.8278 64.7886 25.344 64.3047C24.8602 63.8209 24.5884 63.1647 24.5884 62.4806V20.026C24.5957 19.3466 24.8706 18.6975 25.3536 18.2196C25.8366 17.7418 26.4887 17.4737 27.1681 17.4738H27.7718C28.4513 17.4737 29.1033 17.7418 29.5863 18.2196C30.0693 18.6975 30.3443 19.3466 30.3515 20.026V62.5355C30.3515 63.2196 30.0797 63.8758 29.5959 64.3596C29.1122 64.8434 28.456 65.1151 27.7718 65.1151V65.0602ZM36.8555 58.5288H36.2243C35.5476 58.5288 34.8983 58.2598 34.4197 57.7812C33.9411 57.3026 33.6721 56.6536 33.6721 55.9766V26.6123C33.6686 26.2749 33.7319 25.94 33.8585 25.6272C33.985 25.3144 34.1724 25.0298 34.4098 24.7899C34.6472 24.55 34.9298 24.3595 35.2413 24.2296C35.5528 24.0996 35.8868 24.0327 36.2243 24.0327H36.8555C37.535 24.0399 38.1841 24.3149 38.6618 24.7979C39.1399 25.2809 39.4077 25.9329 39.4077 26.6123V55.9766C39.4077 56.6536 39.1388 57.3026 38.6602 57.7812C38.1816 58.2598 37.5326 58.5288 36.8555 58.5288ZM45.9392 51.8052H45.3629C44.6834 51.8052 44.0314 51.5373 43.5484 51.0593C43.0654 50.5815 42.7904 49.9325 42.7833 49.253V33.4457C42.7608 33.0933 42.8107 32.7401 42.9304 32.4078C43.0497 32.0757 43.2363 31.7714 43.4781 31.5142C43.7199 31.2568 44.0119 31.0521 44.3363 30.9121C44.6604 30.7725 45.0097 30.7006 45.3629 30.7014H45.9667C46.6508 30.7014 47.307 30.9731 47.7908 31.4569C48.2746 31.9407 48.5463 32.5969 48.5463 33.281V49.1981C48.5499 49.5392 48.486 49.8776 48.3578 50.1937C48.2299 50.5099 48.0405 50.7975 47.8004 51.0401C47.5606 51.2824 47.2752 51.4748 46.9601 51.6062C46.6453 51.7377 46.3078 51.8052 45.9667 51.8052H45.9392ZM55.0504 45.9049H54.4466C53.7625 45.9049 53.1063 45.6332 52.6225 45.1494C52.1386 44.6656 51.867 44.0094 51.867 43.3252V39.2362C51.8741 38.5567 52.1491 37.9077 52.6321 37.4299C53.1151 36.9518 53.7671 36.684 54.4466 36.684H55.0504C55.7299 36.684 56.3819 36.9518 56.8649 37.4299C57.3479 37.9077 57.6229 38.5567 57.63 39.2362V43.3252C57.63 44.0047 57.3622 44.6568 56.8841 45.1398C56.4063 45.6228 55.7573 45.8978 55.0778 45.9049H55.0504Z" fill="#394149"/>
</svg>
