<svg width="63" height="63" viewBox="0 0 63 63" fill="none" xmlns="http://www.w3.org/2000/svg">
<path d="M40.2813 32.375C42.2593 30.2508 43.3736 27.4649 43.4063 24.5625C43.4063 21.4296 42.1617 18.4251 39.9465 16.2098C37.7312 13.9945 34.7266 12.75 31.5938 12.75C28.4609 12.75 25.4563 13.9945 23.2411 16.2098C21.0258 18.4251 19.7813 21.4296 19.7813 24.5625C19.8139 27.4649 20.9282 30.2508 22.9063 32.375C20.152 33.7465 17.7819 35.7811 16.0091 38.2957C14.2363 40.8104 13.1163 43.7264 12.75 46.7812C12.6588 47.6101 12.9006 48.4411 13.4222 49.0916C13.9438 49.7422 14.7024 50.1588 15.5313 50.25C16.3601 50.3412 17.1911 50.0994 17.8416 49.5778C18.4922 49.0562 18.9088 48.2976 19 47.4688C19.3729 44.4411 20.8401 41.6542 23.1253 39.6333C25.4104 37.6124 28.3557 36.4968 31.4063 36.4968C34.4568 36.4968 37.4021 37.6124 39.6872 39.6333C41.9724 41.6542 43.4396 44.4411 43.8125 47.4688C43.8994 48.2701 44.2926 49.0068 44.9098 49.5251C45.5271 50.0433 46.3208 50.3031 47.125 50.25H47.4688C48.2879 50.1558 49.0366 49.7416 49.5518 49.0977C50.0669 48.4538 50.3066 47.6324 50.2188 46.8125C49.8796 43.7737 48.795 40.8657 47.0613 38.347C45.3276 35.8283 42.9986 33.7769 40.2813 32.375ZM31.5 30.125C30.3998 30.125 29.3244 29.7988 28.4096 29.1876C27.4949 28.5763 26.7819 27.7076 26.3609 26.6912C25.9399 25.6748 25.8298 24.5563 26.0444 23.4773C26.259 22.3983 26.7888 21.4072 27.5667 20.6292C28.3447 19.8513 29.3358 19.3215 30.4148 19.1069C31.4938 18.8923 32.6123 19.0024 33.6287 19.4234C34.6451 19.8444 35.5138 20.5574 36.1251 21.4721C36.7363 22.3869 37.0625 23.4623 37.0625 24.5625C37.0625 26.0378 36.4765 27.4526 35.4333 28.4958C34.3901 29.539 32.9753 30.125 31.5 30.125ZM53.375 0.25H9.625C7.1386 0.25 4.75403 1.23772 2.99587 2.99587C1.23772 4.75403 0.25 7.1386 0.25 9.625V53.375C0.25 55.8614 1.23772 58.246 2.99587 60.0041C4.75403 61.7623 7.1386 62.75 9.625 62.75H53.375C55.8614 62.75 58.246 61.7623 60.0041 60.0041C61.7623 58.246 62.75 55.8614 62.75 53.375V9.625C62.75 7.1386 61.7623 4.75403 60.0041 2.99587C58.246 1.23772 55.8614 0.25 53.375 0.25ZM56.5 53.375C56.5 54.2038 56.1708 54.9987 55.5847 55.5847C54.9987 56.1708 54.2038 56.5 53.375 56.5H9.625C8.7962 56.5 8.00134 56.1708 7.41529 55.5847C6.82924 54.9987 6.5 54.2038 6.5 53.375V9.625C6.5 8.7962 6.82924 8.00134 7.41529 7.41529C8.00134 6.82924 8.7962 6.5 9.625 6.5H53.375C54.2038 6.5 54.9987 6.82924 55.5847 7.41529C56.1708 8.00134 56.5 8.7962 56.5 9.625V53.375Z" fill="black"/>
</svg>
