<svg width="635" height="470" viewBox="0 0 635 470" fill="none" xmlns="http://www.w3.org/2000/svg">
<g clip-path="url(#clip0_105_1431)">
<path d="M0 8.00001C0 3.58173 3.58172 0 8 0H627C631.418 0 635 3.58172 635 8V462C635 466.418 631.418 470 627 470H7.99998C3.5817 470 0 466.418 0 462V8.00001Z" fill="white"/>
<path d="M-44 51H678V520.764H-44V51Z" fill="url(#paint0_linear_105_1431)"/>
<g clip-path="url(#clip1_105_1431)">
<path d="M692.205 381.974C678.353 395.383 657.362 406.156 645.308 418.957C634.708 430.3 628.264 443.567 621.668 456.628C619.883 460.209 618.229 463.777 616.576 467.346C601.714 499.681 587.208 534.406 554.808 556.378C526.013 575.81 485.621 581.789 451.235 572.671C416.85 563.552 389.342 540.134 377.414 511.846C368.029 489.487 368.273 463.804 379.71 441.59C391.268 419.255 414.323 400.8 442.009 393.586C474.222 385.178 512.152 391.102 538.745 373.638C555.966 362.226 562.294 344.895 575.286 330.795C583.1 322.246 593.138 314.809 605.101 310.938C631.351 302.536 670.384 310.339 690.474 325.31C699.305 331.863 704.986 341.573 705.796 351.629C707.053 363.626 701.07 373.326 692.205 381.974Z" fill="url(#paint1_linear_105_1431)"/>
<path opacity="0.56" d="M725.278 580.031C705.922 585.663 689.996 564.114 674.683 556.523C658.266 548.442 643.566 544.524 629.477 544.401C601.545 544.279 582.066 566.318 565.895 586.275C547.887 608.437 528.408 628.517 497.536 629.252C490.798 629.374 481.365 628.15 475.239 621.293C464.459 609.294 468.747 592.52 472.054 578.684C482.1 535.708 491.043 468.611 438.365 449.511C430.279 446.572 421.948 443.511 416.803 436.9C391.566 404.208 424.766 380.21 453.801 369.803C482.835 359.396 515.422 353.029 542.251 336.01C570.796 317.889 583.292 280.3 616.491 268.668C626.047 265.362 635.235 266.219 641.728 270.995C649.936 276.994 653.856 287.646 656.061 294.993C665.862 327.561 639.155 359.763 650.916 392.087C658.511 413.024 678.235 427.349 696.489 438.736C726.748 457.469 750.27 477.917 750.883 516.485C751.128 535.586 746.35 554.441 737.162 569.746C734.221 574.644 731.036 577.827 727.238 579.296C726.626 579.541 725.891 579.786 725.278 580.031Z" fill="#7FACD6"/>
<path d="M479.282 382.782C478.792 361.967 479.65 340.05 487.49 320.338C494.718 302.339 512.727 281.157 533.798 280.055C547.397 279.32 554.135 296.095 562.22 304.176C613.796 356.212 693.426 322.419 752.598 354.743C763.011 360.375 772.321 369.436 775.384 381.19C778.569 393.434 774.404 406.412 768.646 417.677C755.048 444.124 733.854 463.836 712.292 483.671C693.304 501.058 660.472 519.179 658.266 547.952C657.409 559.584 666.352 569.501 668.802 580.398C675.05 608.927 644.178 627.415 619.799 629.619C591.5 632.19 561.485 620.803 542.251 599.254C517.137 571.093 509.664 509.261 464.459 504.486C460.048 503.996 455.148 504.241 451.595 501.67C446.45 497.997 446.083 490.038 448.9 484.406C453.065 475.835 460.416 469.713 465.684 461.877C480.752 438.981 479.895 410.698 479.282 382.782Z" fill="url(#paint2_linear_105_1431)"/>
<path d="M410.974 353.065C399.938 340.741 379.783 343.091 365.797 347.975C344.7 355.27 315.329 372.649 326.548 399.469C327.951 402.759 329.891 405.938 332.226 408.589C338.41 415.816 347.555 420.031 356.866 421.25C364.812 422.357 373.738 421.698 380.992 417.805C385.128 415.614 388.333 412.161 389.566 407.547C390.166 405.3 390.357 402.689 390.247 400.252C390.043 398.17 388.49 394.967 390.124 393.122C392.848 390.047 398.292 391.501 401.907 390.311C406.777 388.696 411.41 385.117 414.127 380.647C419.528 371.823 417.954 360.631 410.974 353.065Z" fill="url(#paint3_linear_105_1431)"/>
<path d="M151.002 168.865C213.113 114.257 273.51 12.8775 202.577 -51.6479C149.286 -100.134 80.4369 -18.3445 21.2656 -29.6089C-27.8602 -39.0367 -81.2737 -90.8285 -128.317 -43.3221C-161.271 -10.1411 -141.915 37.4878 -151.593 77.8927C-162.864 124.787 -256.093 194.7 -179.403 232.411C-88.2566 277.224 40.8668 242.573 122.09 191.026C131.4 185.027 141.201 177.558 151.002 168.865Z" fill="url(#paint4_linear_105_1431)"/>
<path opacity="0.62" d="M122.58 183.68C159.455 176.089 169.623 190.659 200.495 179.885C206.865 177.681 239.82 166.049 249.498 138.745C261.871 103.36 228.427 60.5064 199.025 40.1815C144.999 2.71508 78.5994 23.4074 60.5907 28.9171C47.2373 33.0801 -9.23887 52.1806 -45.5013 110.094C-67.6752 145.602 -98.6697 222.004 -61.5498 267.429C-37.6607 296.692 11.0974 309.425 31.4338 293.018C48.9524 278.938 32.5364 253.471 52.9952 223.473C73.0865 193.843 111.554 185.884 122.58 183.68Z" fill="#B7D1E8"/>
<path d="M64.7559 25.9786C24.5733 -12.2224 -23.5724 -42.0976 -76.0058 -60.2186C-91.3193 -65.4835 -103.325 -68.6669 -119.496 -66.9527C-158.576 -62.7898 -184.058 -26.9151 -184.793 10.9186C-185.283 36.9981 -176.34 62.2206 -166.294 86.2187C-156.249 110.217 -145.468 136.051 -139.465 162.131C-134.442 184.415 -134.075 213.066 -108.838 222.861C-81.0287 233.635 -56.527 213.31 -31.6579 204.25C26.6559 183.19 57.2829 263.511 113.392 250.777C200.005 231.064 143.284 123.195 112.289 80.2191C98.2006 60.7513 82.2746 42.6303 64.7559 25.9786Z" fill="url(#paint5_linear_105_1431)"/>
<path d="M89.9926 -14.5489C88.5225 -16.3854 86.8074 -18.0996 84.8472 -19.5689C81.9071 -21.6503 78.5993 -23.3645 75.0466 -24.2215C68.9212 -25.8133 62.7958 -24.0991 56.6704 -25.201C54.0977 -25.6908 50.9125 -26.5479 48.5849 -27.8947C44.0521 -30.7108 30.8212 -56.6679 20.7756 -44.1791C17.2228 -39.8937 15.7527 -33.8942 16.8553 -28.3845C17.8353 -23.9767 20.653 -19.8137 25.5534 -19.4464C27.881 -19.324 30.3312 -19.9362 32.6588 -20.3035C34.4964 -20.5484 39.1518 -22.2625 40.8669 -21.1606C45.5222 -17.9772 52.9951 4.91897 63.2858 12.5102C69.1662 16.918 77.1292 18.6322 83.9897 15.4488C90.6051 12.5102 94.5254 5.89847 94.5254 -1.203C94.5254 -6.22301 92.8103 -10.7532 89.9926 -14.5489Z" fill="#D2E2F1" fill-opacity="0.59"/>
<path d="M213.481 215.759C217.202 215.759 220.219 212.744 220.219 209.025C220.219 205.306 217.202 202.291 213.481 202.291C209.759 202.291 206.743 205.306 206.743 209.025C206.743 212.744 209.759 215.759 213.481 215.759Z" fill="#E4EEF7"/>
<path d="M190.817 235.962C193.185 235.962 195.104 234.043 195.104 231.676C195.104 229.31 193.185 227.391 190.817 227.391C188.449 227.391 186.529 229.31 186.529 231.676C186.529 234.043 188.449 235.962 190.817 235.962Z" stroke="#E4EEF7" stroke-width="1.2727" stroke-miterlimit="10"/>
<path d="M64.0209 295.345C67.7422 295.345 70.7588 292.33 70.7588 288.611C70.7588 284.891 67.7422 281.876 64.0209 281.876C60.2996 281.876 57.283 284.891 57.283 288.611C57.283 292.33 60.2996 295.345 64.0209 295.345Z" stroke="#E4EEF7" stroke-width="2" stroke-miterlimit="10"/>
<path d="M57.773 252.613C61.4482 253.226 63.8984 256.654 63.4084 260.327C62.7958 264 59.3656 266.449 55.6904 265.959" stroke="#E4EEF7" stroke-width="2" stroke-miterlimit="10"/>
<path d="M141.813 266.082L133.85 262.409L129.563 270.122L121.6 266.327L117.434 274.04L109.349 270.367L105.184 278.081" stroke="#E4EEF7" stroke-width="3.0845" stroke-miterlimit="10"/>
<path d="M185.059 210.127L181.506 206.699L178.076 203.393L182.731 202.046L187.386 200.699L186.161 205.474L185.059 210.127Z" stroke="#E4EEF7" stroke-miterlimit="10"/>
<path d="M86.0723 274.408L82.0296 271.592L77.0067 271.469L79.8244 267.429L79.9469 262.409L83.9896 265.225L89.0125 265.347L86.1948 269.388L86.0723 274.408Z" fill="#E4EEF7"/>
</g>
<rect x="1.5" y="1.5" width="632" height="45" fill="white" stroke="#AAAAAA" stroke-width="3"/>
<circle cx="22" cy="24" r="6" fill="#EA0C0C"/>
<circle cx="42" cy="24" r="6" fill="#FF7A00"/>
<circle cx="62" cy="24" r="6" fill="#0AE012"/>
<rect x="85.5" y="13.5" width="532" height="21" rx="10.5" fill="white" stroke="#AAAAAA" stroke-width="3"/>
<path d="M102.149 28L100.371 20.846H101.491L102.59 25.606C102.609 25.6853 102.627 25.7763 102.646 25.879C102.665 25.977 102.681 26.0773 102.695 26.18C102.718 26.054 102.737 25.9467 102.751 25.858C102.77 25.7647 102.791 25.669 102.814 25.571L103.857 20.846H104.774L105.824 25.585C105.847 25.6783 105.871 25.781 105.894 25.893C105.917 26.0003 105.938 26.1147 105.957 26.236C105.971 26.1193 105.987 26.0097 106.006 25.907C106.029 25.7997 106.053 25.6923 106.076 25.585L107.133 20.846H108.26L106.475 28H105.481L104.445 23.45C104.426 23.3567 104.403 23.2447 104.375 23.114C104.352 22.9833 104.328 22.855 104.305 22.729C104.282 22.8643 104.256 22.995 104.228 23.121C104.205 23.2423 104.184 23.345 104.165 23.429L103.157 28H102.149ZM110.776 28L108.998 20.846H110.118L111.217 25.606C111.236 25.6853 111.254 25.7763 111.273 25.879C111.292 25.977 111.308 26.0773 111.322 26.18C111.345 26.054 111.364 25.9467 111.378 25.858C111.397 25.7647 111.418 25.669 111.441 25.571L112.484 20.846H113.401L114.451 25.585C114.474 25.6783 114.498 25.781 114.521 25.893C114.544 26.0003 114.565 26.1147 114.584 26.236C114.598 26.1193 114.614 26.0097 114.633 25.907C114.656 25.7997 114.68 25.6923 114.703 25.585L115.76 20.846H116.887L115.102 28H114.108L113.072 23.45C113.053 23.3567 113.03 23.2447 113.002 23.114C112.979 22.9833 112.955 22.855 112.932 22.729C112.909 22.8643 112.883 22.995 112.855 23.121C112.832 23.2423 112.811 23.345 112.792 23.429L111.784 28H110.776ZM119.403 28L117.625 20.846H118.745L119.844 25.606C119.863 25.6853 119.881 25.7763 119.9 25.879C119.919 25.977 119.935 26.0773 119.949 26.18C119.972 26.054 119.991 25.9467 120.005 25.858C120.024 25.7647 120.045 25.669 120.068 25.571L121.111 20.846H122.028L123.078 25.585C123.101 25.6783 123.125 25.781 123.148 25.893C123.171 26.0003 123.192 26.1147 123.211 26.236C123.225 26.1193 123.241 26.0097 123.26 25.907C123.283 25.7997 123.307 25.6923 123.33 25.585L124.387 20.846H125.514L123.729 28H122.735L121.699 23.45C121.68 23.3567 121.657 23.2447 121.629 23.114C121.606 22.9833 121.582 22.855 121.559 22.729C121.536 22.8643 121.51 22.995 121.482 23.121C121.459 23.2423 121.438 23.345 121.419 23.429L120.411 28H119.403ZM130.193 28.189C129.922 28.189 129.698 28.0957 129.521 27.909C129.344 27.7177 129.255 27.5007 129.255 27.258C129.255 27.0153 129.344 26.7983 129.521 26.607C129.698 26.4157 129.922 26.32 130.193 26.32C130.459 26.32 130.681 26.4157 130.858 26.607C131.04 26.7983 131.131 27.0153 131.131 27.258C131.131 27.5007 131.04 27.7177 130.858 27.909C130.681 28.0957 130.459 28.189 130.193 28.189ZM135.222 28V26.985H136.713V21.861H135.222V20.846H137.812V22.449L137.728 22.246C137.877 21.924 138.103 21.6463 138.407 21.413C138.715 21.1797 139.058 21 139.436 20.874C139.818 20.7433 140.199 20.678 140.577 20.678C140.941 20.678 141.251 20.7107 141.508 20.776C141.764 20.8413 141.97 20.9207 142.124 21.014V23.471H140.983V21.35L141.333 21.896C141.216 21.8633 141.09 21.84 140.955 21.826C140.824 21.812 140.686 21.805 140.542 21.805C140.07 21.805 139.632 21.8843 139.226 22.043C138.82 22.197 138.493 22.4257 138.246 22.729C138.003 23.0323 137.882 23.4033 137.882 23.842V26.985H139.989V28H135.222ZM147.594 28.168C146.908 28.168 146.32 28 145.83 27.664C145.344 27.328 144.973 26.8753 144.717 26.306C144.46 25.7367 144.332 25.1067 144.332 24.416C144.332 23.6273 144.467 22.9553 144.738 22.4C145.008 21.84 145.386 21.413 145.872 21.119C146.362 20.825 146.936 20.678 147.594 20.678C148.13 20.678 148.623 20.7993 149.071 21.042C149.523 21.2847 149.885 21.6603 150.156 22.169C150.426 22.673 150.562 23.3217 150.562 24.115C150.562 24.2037 150.559 24.3133 150.555 24.444C150.555 24.57 150.545 24.7147 150.527 24.878H145.228V23.87H149.421C149.411 23.3007 149.309 22.8597 149.113 22.547C148.921 22.2297 148.686 22.008 148.406 21.882C148.126 21.756 147.855 21.693 147.594 21.693C146.866 21.693 146.331 21.924 145.991 22.386C145.65 22.8433 145.48 23.457 145.48 24.227C145.48 25.123 145.669 25.83 146.047 26.348C146.425 26.866 146.952 27.125 147.629 27.125C147.913 27.125 148.196 27.0807 148.476 26.992C148.756 26.8987 149.031 26.7447 149.302 26.53L149.946 27.279C149.647 27.5357 149.295 27.748 148.889 27.916C148.487 28.084 148.056 28.168 147.594 28.168ZM153.211 28V20.846H154.352V22.183L154.17 21.938C154.282 21.6767 154.44 21.4527 154.646 21.266C154.851 21.0793 155.094 20.9347 155.374 20.832C155.654 20.7293 155.964 20.678 156.305 20.678C156.874 20.678 157.355 20.7877 157.747 21.007C158.143 21.2263 158.442 21.5763 158.643 22.057C158.848 22.533 158.951 23.1583 158.951 23.933V28H157.817V23.716C157.817 22.9833 157.653 22.4677 157.327 22.169C157.005 21.8703 156.606 21.721 156.13 21.721C155.784 21.721 155.476 21.7817 155.206 21.903C154.94 22.0243 154.73 22.2273 154.576 22.512C154.426 22.7967 154.352 23.1887 154.352 23.688V28H153.211ZM164.484 28.168C163.849 28.168 163.301 28.0163 162.839 27.713C162.377 27.405 162.022 26.971 161.775 26.411C161.527 25.851 161.404 25.186 161.404 24.416C161.404 23.632 161.53 22.9623 161.782 22.407C162.034 21.847 162.388 21.42 162.846 21.126C163.308 20.8273 163.849 20.678 164.47 20.678C164.936 20.678 165.326 20.7457 165.639 20.881C165.951 21.0163 166.21 21.1727 166.416 21.35V18.445L167.557 17.892V28H166.416V27.398C166.224 27.6033 165.972 27.783 165.66 27.937C165.352 28.091 164.96 28.168 164.484 28.168ZM164.624 27.118C165.02 27.118 165.37 27.0317 165.674 26.859C165.982 26.6817 166.229 26.4297 166.416 26.103V22.673C166.28 22.4537 166.068 22.2413 165.779 22.036C165.489 21.826 165.102 21.721 164.617 21.721C163.959 21.721 163.455 21.9543 163.105 22.421C162.755 22.883 162.58 23.548 162.58 24.416C162.58 24.9247 162.661 25.3843 162.825 25.795C162.988 26.201 163.221 26.523 163.525 26.761C163.833 26.999 164.199 27.118 164.624 27.118ZM173.475 28.168C172.789 28.168 172.201 28 171.711 27.664C171.225 27.328 170.854 26.8753 170.598 26.306C170.341 25.7367 170.213 25.1067 170.213 24.416C170.213 23.6273 170.348 22.9553 170.619 22.4C170.889 21.84 171.267 21.413 171.753 21.119C172.243 20.825 172.817 20.678 173.475 20.678C174.011 20.678 174.504 20.7993 174.952 21.042C175.404 21.2847 175.766 21.6603 176.037 22.169C176.307 22.673 176.443 23.3217 176.443 24.115C176.443 24.2037 176.44 24.3133 176.436 24.444C176.436 24.57 176.426 24.7147 176.408 24.878H171.109V23.87H175.302C175.292 23.3007 175.19 22.8597 174.994 22.547C174.802 22.2297 174.567 22.008 174.287 21.882C174.007 21.756 173.736 21.693 173.475 21.693C172.747 21.693 172.212 21.924 171.872 22.386C171.531 22.8433 171.361 23.457 171.361 24.227C171.361 25.123 171.55 25.83 171.928 26.348C172.306 26.866 172.833 27.125 173.51 27.125C173.794 27.125 174.077 27.0807 174.357 26.992C174.637 26.8987 174.912 26.7447 175.183 26.53L175.827 27.279C175.528 27.5357 175.176 27.748 174.77 27.916C174.368 28.084 173.937 28.168 173.475 28.168ZM178.357 28V26.985H179.848V21.861H178.357V20.846H180.947V22.449L180.863 22.246C181.012 21.924 181.238 21.6463 181.542 21.413C181.85 21.1797 182.193 21 182.571 20.874C182.953 20.7433 183.334 20.678 183.712 20.678C184.076 20.678 184.386 20.7107 184.643 20.776C184.899 20.8413 185.105 20.9207 185.259 21.014V23.471H184.118V21.35L184.468 21.896C184.351 21.8633 184.225 21.84 184.09 21.826C183.959 21.812 183.821 21.805 183.677 21.805C183.205 21.805 182.767 21.8843 182.361 22.043C181.955 22.197 181.628 22.4257 181.381 22.729C181.138 23.0323 181.017 23.4033 181.017 23.842V26.985H183.124V28H178.357ZM186.984 28V20.846H188.104V22.169L187.936 22.057C188.066 21.6183 188.251 21.28 188.489 21.042C188.727 20.7993 189.035 20.678 189.413 20.678C189.819 20.678 190.136 20.7947 190.365 21.028C190.593 21.2567 190.75 21.5063 190.834 21.777C190.997 21.4783 191.209 21.2217 191.471 21.007C191.737 20.7877 192.061 20.678 192.444 20.678C193.036 20.678 193.475 20.8717 193.76 21.259C194.044 21.6463 194.187 22.2693 194.187 23.128V28H193.06V23.618C193.06 22.988 193.006 22.519 192.899 22.211C192.796 21.8983 192.565 21.742 192.206 21.742C191.954 21.742 191.751 21.8307 191.597 22.008C191.443 22.1807 191.331 22.4163 191.261 22.715C191.191 23.009 191.156 23.3357 191.156 23.695V28H190.029V23.471C190.029 23.1677 190.01 22.8853 189.973 22.624C189.935 22.358 189.858 22.1457 189.742 21.987C189.625 21.8237 189.448 21.742 189.21 21.742C188.962 21.742 188.757 21.8307 188.594 22.008C188.43 22.1807 188.307 22.4163 188.223 22.715C188.143 23.009 188.104 23.3357 188.104 23.695V28H186.984ZM198.739 28.168C198.24 28.168 197.797 28.0793 197.409 27.902C197.027 27.72 196.726 27.4517 196.506 27.097C196.292 26.7377 196.184 26.2897 196.184 25.753C196.184 25.2023 196.315 24.7543 196.576 24.409C196.838 24.059 197.176 23.8023 197.591 23.639C198.007 23.471 198.448 23.387 198.914 23.387C199.264 23.387 199.596 23.422 199.908 23.492C200.226 23.562 200.548 23.6857 200.874 23.863V23.303C200.874 22.8643 200.804 22.5283 200.664 22.295C200.524 22.057 200.338 21.8937 200.104 21.805C199.871 21.7163 199.617 21.672 199.341 21.672C198.959 21.672 198.56 21.7513 198.144 21.91C197.734 22.064 197.377 22.2367 197.073 22.428L196.744 21.469C197.057 21.2777 197.451 21.098 197.927 20.93C198.408 20.762 198.917 20.678 199.453 20.678C199.724 20.678 200.004 20.713 200.293 20.783C200.583 20.8483 200.853 20.972 201.105 21.154C201.357 21.336 201.56 21.5927 201.714 21.924C201.868 22.2507 201.945 22.6777 201.945 23.205V28H200.874V27.335C200.608 27.573 200.296 27.7713 199.936 27.93C199.582 28.0887 199.183 28.168 198.739 28.168ZM198.886 27.174C199.339 27.174 199.731 27.069 200.062 26.859C200.394 26.6443 200.664 26.4133 200.874 26.166V24.892C200.65 24.752 200.375 24.6307 200.048 24.528C199.722 24.4253 199.39 24.374 199.054 24.374C198.574 24.374 198.154 24.486 197.794 24.71C197.435 24.9293 197.255 25.277 197.255 25.753C197.255 26.1777 197.395 26.5207 197.675 26.782C197.96 27.0433 198.364 27.174 198.886 27.174ZM204.237 28V26.985H205.728V21.861H204.237V20.846H206.827V22.449L206.743 22.246C206.893 21.924 207.119 21.6463 207.422 21.413C207.73 21.1797 208.073 21 208.451 20.874C208.834 20.7433 209.214 20.678 209.592 20.678C209.956 20.678 210.267 20.7107 210.523 20.776C210.78 20.8413 210.985 20.9207 211.139 21.014V23.471H209.998V21.35L210.348 21.896C210.232 21.8633 210.106 21.84 209.97 21.826C209.84 21.812 209.702 21.805 209.557 21.805C209.086 21.805 208.647 21.8843 208.241 22.043C207.835 22.197 207.509 22.4257 207.261 22.729C207.019 23.0323 206.897 23.4033 206.897 23.842V26.985H209.004V28H204.237ZM213.613 28V18.438L214.754 17.892V28H213.613ZM214.684 25.004V23.688L217.379 20.846H218.709L214.684 25.004ZM218.289 28L215.958 23.415L216.77 22.589L219.542 28H218.289ZM225.089 28.189C224.819 28.189 224.595 28.0957 224.417 27.909C224.24 27.7177 224.151 27.5007 224.151 27.258C224.151 27.0153 224.24 26.7983 224.417 26.607C224.595 26.4157 224.819 26.32 225.089 26.32C225.355 26.32 225.577 26.4157 225.754 26.607C225.936 26.7983 226.027 27.0153 226.027 27.258C226.027 27.5007 225.936 27.7177 225.754 27.909C225.577 28.0957 225.355 28.189 225.089 28.189ZM233.877 28.168C232.953 28.168 232.221 27.8413 231.679 27.188C231.143 26.5347 230.874 25.6153 230.874 24.43C230.874 23.646 230.998 22.974 231.245 22.414C231.493 21.854 231.847 21.4247 232.309 21.126C232.771 20.8273 233.324 20.678 233.968 20.678C234.57 20.678 235.088 20.8133 235.522 21.084C235.961 21.3547 236.283 21.756 236.488 22.288L235.438 22.68C235.322 22.4047 235.144 22.176 234.906 21.994C234.668 21.812 234.346 21.721 233.94 21.721C233.278 21.721 232.797 21.966 232.498 22.456C232.2 22.9413 232.05 23.5993 232.05 24.43C232.05 25.2747 232.202 25.935 232.505 26.411C232.809 26.8823 233.278 27.118 233.912 27.118C234.314 27.118 234.652 27.0223 234.927 26.831C235.207 26.6397 235.408 26.376 235.529 26.04L236.572 26.411C236.39 26.9617 236.064 27.3933 235.592 27.706C235.121 28.014 234.549 28.168 233.877 28.168ZM242.343 28.168C241.676 28.168 241.093 28.021 240.593 27.727C240.094 27.433 239.704 27.0083 239.424 26.453C239.149 25.893 239.011 25.2187 239.011 24.43C239.011 23.6507 239.149 22.981 239.424 22.421C239.704 21.861 240.094 21.4317 240.593 21.133C241.093 20.8297 241.676 20.678 242.343 20.678C243.015 20.678 243.601 20.825 244.1 21.119C244.604 21.413 244.994 21.84 245.269 22.4C245.545 22.96 245.682 23.632 245.682 24.416C245.682 25.1953 245.545 25.865 245.269 26.425C244.994 26.985 244.604 27.4167 244.1 27.72C243.601 28.0187 243.015 28.168 242.343 28.168ZM242.343 27.118C243.034 27.118 243.566 26.8777 243.939 26.397C244.317 25.9163 244.506 25.256 244.506 24.416C244.506 23.5807 244.324 22.9227 243.96 22.442C243.596 21.9613 243.057 21.721 242.343 21.721C241.639 21.721 241.102 21.9567 240.733 22.428C240.365 22.8947 240.18 23.562 240.18 24.43C240.18 25.2607 240.365 25.9163 240.733 26.397C241.102 26.8777 241.639 27.118 242.343 27.118ZM247.372 28V20.846H248.492V22.169L248.324 22.057C248.455 21.6183 248.639 21.28 248.877 21.042C249.115 20.7993 249.423 20.678 249.801 20.678C250.207 20.678 250.525 20.7947 250.753 21.028C250.982 21.2567 251.138 21.5063 251.222 21.777C251.386 21.4783 251.598 21.2217 251.859 21.007C252.125 20.7877 252.45 20.678 252.832 20.678C253.425 20.678 253.864 20.8717 254.148 21.259C254.433 21.6463 254.575 22.2693 254.575 23.128V28H253.448V23.618C253.448 22.988 253.395 22.519 253.287 22.211C253.185 21.8983 252.954 21.742 252.594 21.742C252.342 21.742 252.139 21.8307 251.985 22.008C251.831 22.1807 251.719 22.4163 251.649 22.715C251.579 23.009 251.544 23.3357 251.544 23.695V28H250.417V23.471C250.417 23.1677 250.399 22.8853 250.361 22.624C250.324 22.358 250.247 22.1457 250.13 21.987C250.014 21.8237 249.836 21.742 249.598 21.742C249.351 21.742 249.146 21.8307 248.982 22.008C248.819 22.1807 248.695 22.4163 248.611 22.715C248.532 23.009 248.492 23.3357 248.492 23.695V28H247.372Z" fill="#767676"/>
</g>
<defs>
<linearGradient id="paint0_linear_105_1431" x1="890.5" y1="-79" x2="-169" y2="604.5" gradientUnits="userSpaceOnUse">
<stop stop-color="#7131C6"/>
<stop offset="1" stop-color="#EE5573"/>
</linearGradient>
<linearGradient id="paint1_linear_105_1431" x1="289.661" y1="656.743" x2="613.065" y2="233.19" gradientUnits="userSpaceOnUse">
<stop stop-color="#7FACD6"/>
<stop offset="1" stop-color="#E9B7D4"/>
</linearGradient>
<linearGradient id="paint2_linear_105_1431" x1="472.69" y1="415.663" x2="795.805" y2="538.526" gradientUnits="userSpaceOnUse">
<stop offset="2.54313e-07" stop-color="#E9B7D4"/>
<stop offset="1" stop-color="#7FACD6"/>
</linearGradient>
<linearGradient id="paint3_linear_105_1431" x1="346.605" y1="354.453" x2="395.01" y2="405.481" gradientUnits="userSpaceOnUse">
<stop offset="2.54313e-07" stop-color="#E9B7D4"/>
<stop offset="1" stop-color="#7FACD6"/>
</linearGradient>
<linearGradient id="paint4_linear_105_1431" x1="-209.487" y1="92.9796" x2="234.657" y2="92.9796" gradientUnits="userSpaceOnUse">
<stop stop-color="#959EC2"/>
<stop offset="1" stop-color="#D9E5FA"/>
</linearGradient>
<linearGradient id="paint5_linear_105_1431" x1="-290.064" y1="23.0593" x2="76.8789" y2="131.407" gradientUnits="userSpaceOnUse">
<stop offset="2.34751e-07" stop-color="#E9B7D4"/>
<stop offset="0.9995" stop-color="#C0B9DB"/>
</linearGradient>
<clipPath id="clip0_105_1431">
<path d="M0 8.00001C0 3.58173 3.58172 0 8 0H627C631.418 0 635 3.58172 635 8V462C635 466.418 631.418 470 627 470H7.99998C3.5817 470 0 466.418 0 462V8.00001Z" fill="white"/>
</clipPath>
<clipPath id="clip1_105_1431">
<rect width="762" height="537" fill="white" transform="translate(-64 -16)"/>
</clipPath>
</defs>
</svg>
