<svg width="1512" height="982" viewBox="0 0 1512 982" fill="none" xmlns="http://www.w3.org/2000/svg">
<path d="M1008.39 646.535C1017.25 606.453 1021.18 564.895 1025.85 524.566C1035.44 437.515 1037.41 343.333 1004.46 260.709C943.722 108.739 742.325 33.7378 594.043 98.1652C478.468 148.33 367.072 282.103 460.516 403.58C488.55 439.974 541.42 464.811 550.764 513.254C560.6 564.895 510.435 592.928 483.632 628.338C444.041 680.471 471.828 746.373 508.222 791.62C576.092 875.966 684.045 906.458 788.063 881.622C857.163 865.146 920.607 822.85 960.935 764.324C985.526 728.422 999.542 688.339 1008.39 646.535Z" fill="url(#paint0_linear_289_1096)"/>
<path opacity="0.52" d="M836.507 571.043C864.294 489.156 873.884 394.974 829.375 321.94C829.375 321.694 829.129 321.694 829.129 321.448C782.899 245.463 678.881 207.84 593.305 223.086C563.551 228.496 534.534 242.758 516.583 267.103C475.271 323.169 514.37 408.499 461.008 456.942C418.22 495.795 357.236 484.238 308.792 509.074C263.054 532.435 232.561 582.354 228.627 633.257C214.856 818.67 431.007 876.458 577.322 841.785C682.323 816.949 763.226 732.111 809.211 637.683C819.047 617.027 828.392 594.65 836.507 571.043Z" fill="#F9DABE"/>
<path d="M1246.19 177.101C1168.73 63.0008 1005.44 88.8209 910.524 163.33C862.818 200.708 824.457 248.168 784.129 292.923C747.489 333.497 701.504 388.334 642.487 392.515C616.421 394.236 598.961 376.531 575.846 369.154C509.697 348.006 450.188 413.909 440.106 474.156C419.696 597.109 535.763 669.897 637.568 700.881C876.835 773.669 1207.58 657.356 1272.99 396.203C1290.94 325.874 1288.48 239.069 1246.19 177.101Z" fill="url(#paint1_linear_289_1096)"/>
<path d="M1175.36 713.176C1140.69 674.815 1077.74 687.356 1033.23 695.963C1014.79 699.651 1015.28 725.226 1033.72 728.422C1056.59 732.603 1080.69 738.505 1103.31 746.128C1120.53 752.029 1139.22 761.866 1157.66 756.948C1175.61 752.275 1190.37 729.898 1175.36 713.176Z" fill="url(#paint2_linear_289_1096)"/>
<path d="M1054.87 751.537C1044.79 742.193 1031.02 738.75 1017.98 735.799C1009.38 733.832 1003.72 747.603 1011.35 752.029C1022.17 758.423 1031.51 767.029 1042.58 772.931C1047.99 775.882 1055.36 772.439 1058.07 767.521C1061.26 761.865 1059.54 755.964 1054.87 751.537Z" fill="url(#paint3_linear_289_1096)"/>
<path d="M353.547 416.122C373.104 416.122 388.958 400.268 388.958 380.711C388.958 361.155 373.104 345.301 353.547 345.301C333.991 345.301 318.137 361.155 318.137 380.711C318.137 400.268 333.991 416.122 353.547 416.122Z" stroke="url(#paint4_linear_289_1096)" stroke-width="6.3045" stroke-miterlimit="10"/>
<path d="M277.562 322.923C288.563 322.923 297.481 314.005 297.481 303.004C297.481 292.004 288.563 283.086 277.562 283.086C266.562 283.086 257.644 292.004 257.644 303.004C257.644 314.005 266.562 322.923 277.562 322.923Z" stroke="url(#paint5_linear_289_1096)" stroke-width="3.5463" stroke-miterlimit="10"/>
<path d="M369.777 261.201L353.055 301.775" stroke="url(#paint6_linear_289_1096)" stroke-width="3.2226" stroke-miterlimit="10" stroke-linecap="round" stroke-linejoin="round"/>
<path d="M341.252 273.25L381.826 289.726" stroke="url(#paint7_linear_289_1096)" stroke-width="3.2226" stroke-miterlimit="10" stroke-linecap="round" stroke-linejoin="round"/>
<path d="M150.892 125.097C175.692 94.4971 216.592 109.797 227.892 87.3971C240.492 62.2971 201.192 19.0971 182.992 -0.902901C156.292 -30.2029 133.192 -55.6029 95.4924 -59.5029C52.7924 -64.0029 2.3924 -39.9029 -3.9076 -8.3029C-10.0076 22.2971 29.5925 39.2971 22.6925 67.5971C13.5925 104.397 -59.4076 100.297 -63.9076 128.597C-67.9076 153.997 -13.7076 186.997 33.4924 196.297C45.3924 198.597 102.892 209.897 129.492 179.497C145.792 160.897 134.292 145.597 150.892 125.097Z" fill="url(#paint8_linear_289_1096)"/>
<path opacity="0.56" d="M-103.908 170.497C-104.008 75.9972 -0.307648 15.9972 85.3923 41.2972C147.692 59.5972 176.692 111.597 183.692 125.297C202.992 163.097 225.292 242.297 181.092 280.897C153.092 305.297 107.292 311.497 74.9923 291.797C61.3923 283.497 51.3923 271.097 47.0923 255.697C44.4923 246.497 45.0923 235.397 34.5923 231.197C29.7923 229.297 24.2924 229.297 19.1924 230.497C-4.1076 236.197 -19.0076 264.497 -44.8076 261.597C-60.1076 259.897 -70.6076 246.497 -79.8076 235.497C-95.0076 217.197 -103.908 194.397 -103.908 170.497Z" fill="#FFDD95"/>
<path d="M-143.408 167.697C-138.008 146.997 -97.7076 155.397 -71.1076 121.197C-58.1076 104.497 -48.3076 77.4971 -55.0076 53.0971C-66.0076 12.9971 -113.408 9.69713 -113.208 -15.1029C-113.008 -40.3029 -65.1076 -73.2029 -27.3076 -64.6029C16.4924 -54.7029 20.5924 4.69712 64.9924 9.89712C91.7924 13.0971 105.192 -6.80287 121.592 1.29713C145.492 13.0971 144.892 63.1971 138.892 92.8971C128.292 145.597 91.7924 177.697 78.7924 188.797C68.1924 197.897 -6.30756 259.597 -79.8076 233.497C-115.208 220.897 -148.908 188.297 -143.408 167.697Z" fill="url(#paint9_linear_289_1096)"/>
<path d="M221.592 149.097C221.192 139.097 215.992 129.097 209.592 121.597C205.792 117.097 196.992 107.997 191.392 115.097C187.792 119.697 191.992 124.797 194.092 128.997C196.692 134.197 199.092 139.897 201.292 145.397C203.092 150.097 204.292 156.397 209.292 158.997C213.292 161.097 217.492 159.097 219.792 155.597C221.292 153.597 221.692 151.397 221.592 149.097Z" fill="url(#paint10_linear_289_1096)"/>
<path d="M212.892 106.597C209.992 104.997 207.392 104.097 204.092 105.397C202.392 106.097 202.492 108.397 203.992 109.097C206.592 110.397 218.292 122.997 219.992 114.097C220.792 110.097 215.692 108.097 212.892 106.597Z" fill="url(#paint11_linear_289_1096)"/>
<path d="M21.3924 271.497C29.1244 271.497 35.3924 265.229 35.3924 257.497C35.3924 249.765 29.1244 243.497 21.3924 243.497C13.6604 243.497 7.3924 249.765 7.3924 257.497C7.3924 265.229 13.6604 271.497 21.3924 271.497Z" fill="url(#paint12_linear_289_1096)"/>
<path d="M40.3924 278.497C43.1538 278.497 45.3924 276.258 45.3924 273.497C45.3924 270.736 43.1538 268.497 40.3924 268.497C37.631 268.497 35.3924 270.736 35.3924 273.497C35.3924 276.258 37.631 278.497 40.3924 278.497Z" fill="url(#paint13_linear_289_1096)"/>
<path d="M25.3924 287.497C27.6015 287.497 29.3924 285.706 29.3924 283.497C29.3924 281.288 27.6015 279.497 25.3924 279.497C23.1833 279.497 21.3924 281.288 21.3924 283.497C21.3924 285.706 23.1833 287.497 25.3924 287.497Z" fill="url(#paint14_linear_289_1096)"/>
<path d="M1696.78 1033.7C1688.32 1004.1 1676.27 975.352 1663.16 949.561C1620.67 865.847 1568.03 776.424 1490.03 721.037C1428.72 677.489 1343.74 661.845 1274.19 697.149C1195.12 737.104 1152 848.935 1185.4 931.17C1221.34 1003.89 1338.24 1009.18 1356 1091.41C1362.76 1122.7 1354.31 1158.21 1362.97 1190.14C1369.95 1215.5 1385.59 1239.6 1404.2 1257.78C1442.88 1295.2 1498.69 1308.94 1551.33 1299.85C1603.12 1290.76 1651.54 1261.17 1680.5 1216.98C1716.44 1162.23 1714.32 1095.64 1696.78 1033.7Z" fill="url(#paint15_linear_289_1096)"/>
<path opacity="0.56" d="M1818.33 1008.54C1815.58 993.322 1817.48 977.467 1829.53 959.075C1842.64 938.992 1860.82 922.502 1871.39 900.94C1888.94 865.213 1877.95 820.184 1853.42 790.377C1799.09 724.843 1691.07 730.973 1617.29 751.268C1542.24 771.985 1470.37 813.42 1412.23 865.001C1370.58 901.785 1330.84 941.317 1294.9 983.597C1273.13 1009.18 1204.21 1082.11 1237.19 1119.32C1247.13 1130.52 1263.83 1133.9 1278.2 1135.38C1299.98 1137.92 1317.1 1140.25 1336.76 1151.45C1369.95 1170.48 1396.59 1195.21 1436.33 1198.8C1477.98 1202.4 1519.2 1189.5 1560.84 1189.08C1593.61 1188.66 1625.74 1196.27 1656.61 1206.62C1685.57 1216.35 1710.3 1231.36 1741.38 1227.34C1777.11 1222.69 1810.3 1199.23 1830.17 1169.63C1847.08 1144.26 1854.48 1111.07 1846.24 1081.26C1837.99 1053.99 1822.56 1032.01 1818.33 1008.54Z" fill="#FFDD95"/>
<path d="M1382.85 775.368C1431.47 760.358 1481.99 785.726 1530.83 775.368C1594.25 761.838 1581.35 672.838 1642.02 661C1773.3 664.594 1798.67 849.147 1784.51 947.659C1780.91 971.97 1773.51 991.631 1753.22 1007.27C1690.43 1055.05 1607.35 1026.51 1537.38 1050.82C1506.09 1061.82 1487.91 1084.65 1480.72 1116.36C1472.69 1151.66 1472.48 1193.73 1440.98 1217.62C1390.67 1255.67 1335.7 1202.61 1324.92 1152.08C1302.94 1094.16 1341.62 1046.17 1366.36 997.55C1407.16 923.137 1267.21 811.094 1382.85 775.368Z" fill="url(#paint16_linear_289_1096)"/>
<path d="M1571.42 691.864C1570.15 685.945 1563.59 681.083 1557.67 681.294C1546.05 681.717 1539.07 692.498 1529.77 698.206C1520.04 704.126 1510.95 709.622 1499.54 711.947C1489.81 714.061 1479.88 714.061 1470.15 711.525C1457.26 708.142 1446.27 700.532 1432.74 699.897C1420.26 699.475 1409.27 713.216 1413.5 725.266C1425.55 760.147 1477.98 767.123 1509.26 758.667C1524.48 754.439 1541.18 746.194 1552.18 734.779C1562.54 724.42 1574.59 707.297 1571.42 691.864Z" fill="url(#paint17_linear_289_1096)"/>
<path d="M1351.35 918.486C1351.35 917.641 1351.14 917.006 1351.14 916.161C1349.66 907.916 1341.83 901.786 1333.8 901.574C1323.23 901.151 1314.99 910.242 1314.56 920.6C1314.14 931.805 1323.86 941.106 1334.86 941.106C1338.03 941.106 1341.83 940.261 1344.79 938.569C1349.87 935.61 1352.4 930.325 1352.61 924.617C1352.4 922.291 1352.19 920.389 1351.35 918.486Z" fill="url(#paint18_linear_289_1096)"/>
<path d="M1326.4 967.319C1322.38 965.628 1318.16 964.994 1314.35 965.205C1308.22 963.937 1301.46 964.994 1295.54 968.376C1288.35 972.393 1283.28 979.157 1280.95 986.556C1278.62 992.898 1278.2 999.875 1280.32 1006.43C1285.18 1022.92 1302.94 1033.28 1319.64 1028.84C1331.05 1025.67 1340.35 1015.31 1343.1 1003.89C1346.27 989.727 1340.57 973.45 1326.4 967.319Z" fill="url(#paint19_linear_289_1096)"/>
<path d="M1297.65 919.331C1295.33 915.949 1292.37 913.201 1288.35 912.144C1284.97 911.298 1282.85 911.509 1279.68 912.144C1276.3 912.778 1272.49 915.103 1270.17 917.64C1267.63 920.388 1266.79 922.291 1265.31 925.673C1264.67 927.576 1264.46 929.478 1264.46 931.381C1264.46 933.495 1264.88 935.609 1265.73 937.512C1266.36 939.414 1267.42 941.105 1269.11 942.585C1270.59 944.065 1272.28 945.334 1274.19 945.968C1276.09 947.025 1278.2 947.448 1280.32 947.236C1284.33 947.025 1288.56 945.756 1291.52 942.797C1291.94 942.585 1292.37 942.163 1292.79 941.951C1293.42 941.317 1294.27 940.894 1294.69 940.26C1295.54 939.414 1296.59 937.934 1297.23 936.877C1297.65 936.032 1298.07 935.186 1298.29 934.552C1298.71 933.706 1298.92 933.072 1299.13 932.015C1300.19 927.787 1300.19 923.136 1297.65 919.331Z" fill="url(#paint20_linear_289_1096)"/>
<defs>
<linearGradient id="paint0_linear_289_1096" x1="1006.15" y1="430.549" x2="393.732" y2="538.756" gradientUnits="userSpaceOnUse">
<stop stop-color="#FFB55C"/>
<stop offset="0.3018" stop-color="#F8B680"/>
<stop offset="1" stop-color="#E9B7D4"/>
</linearGradient>
<linearGradient id="paint1_linear_289_1096" x1="752.514" y1="810.96" x2="982.33" y2="-19.0827" gradientUnits="userSpaceOnUse">
<stop stop-color="#F9DABE"/>
<stop offset="1" stop-color="#E9B7D4"/>
</linearGradient>
<linearGradient id="paint2_linear_289_1096" x1="1042.04" y1="756.537" x2="1162.16" y2="688.781" gradientUnits="userSpaceOnUse">
<stop stop-color="#F9DABE"/>
<stop offset="1" stop-color="#E9B7D4"/>
</linearGradient>
<linearGradient id="paint3_linear_289_1096" x1="1016.73" y1="763.77" x2="1051.57" y2="744.114" gradientUnits="userSpaceOnUse">
<stop stop-color="#F9DABE"/>
<stop offset="1" stop-color="#E9B7D4"/>
</linearGradient>
<linearGradient id="paint4_linear_289_1096" x1="322.948" y1="411.19" x2="384.138" y2="350.225" gradientUnits="userSpaceOnUse">
<stop stop-color="#F9DABE"/>
<stop offset="1" stop-color="#E9B7D4"/>
</linearGradient>
<linearGradient id="paint5_linear_289_1096" x1="260.464" y1="320.134" x2="294.883" y2="285.842" gradientUnits="userSpaceOnUse">
<stop stop-color="#F9DABE"/>
<stop offset="1" stop-color="#E9B7D4"/>
</linearGradient>
<linearGradient id="paint6_linear_289_1096" x1="343.12" y1="291.709" x2="379.921" y2="271.263" gradientUnits="userSpaceOnUse">
<stop stop-color="#F9DABE"/>
<stop offset="1" stop-color="#E9B7D4"/>
</linearGradient>
<linearGradient id="paint7_linear_289_1096" x1="371.702" y1="299.823" x2="351.256" y2="263.023" gradientUnits="userSpaceOnUse">
<stop stop-color="#F9DABE"/>
<stop offset="1" stop-color="#E9B7D4"/>
</linearGradient>
<linearGradient id="paint8_linear_289_1096" x1="-69.6171" y1="154.904" x2="164.218" y2="18.902" gradientUnits="userSpaceOnUse">
<stop stop-color="#FC887B"/>
<stop offset="0.9959" stop-color="#FFDD95"/>
</linearGradient>
<linearGradient id="paint9_linear_289_1096" x1="-113.056" y1="239.394" x2="63.2118" y2="-32.7067" gradientUnits="userSpaceOnUse">
<stop stop-color="#86E3CE"/>
<stop offset="1" stop-color="#D0E6A5"/>
</linearGradient>
<linearGradient id="paint10_linear_289_1096" x1="189.988" y1="136.234" x2="221.601" y2="136.234" gradientUnits="userSpaceOnUse">
<stop stop-color="#86E3CE"/>
<stop offset="1" stop-color="#D0E6A5"/>
</linearGradient>
<linearGradient id="paint11_linear_289_1096" x1="202.912" y1="111.021" x2="220.115" y2="111.021" gradientUnits="userSpaceOnUse">
<stop stop-color="#86E3CE"/>
<stop offset="1" stop-color="#D0E6A5"/>
</linearGradient>
<linearGradient id="paint12_linear_289_1096" x1="7.3924" y1="257.497" x2="35.3924" y2="257.497" gradientUnits="userSpaceOnUse">
<stop stop-color="#86E3CE"/>
<stop offset="1" stop-color="#D0E6A5"/>
</linearGradient>
<linearGradient id="paint13_linear_289_1096" x1="35.3924" y1="273.497" x2="45.3924" y2="273.497" gradientUnits="userSpaceOnUse">
<stop stop-color="#86E3CE"/>
<stop offset="1" stop-color="#D0E6A5"/>
</linearGradient>
<linearGradient id="paint14_linear_289_1096" x1="21.3924" y1="283.497" x2="29.3924" y2="283.497" gradientUnits="userSpaceOnUse">
<stop stop-color="#86E3CE"/>
<stop offset="1" stop-color="#D0E6A5"/>
</linearGradient>
<linearGradient id="paint15_linear_289_1096" x1="1174.26" y1="990.273" x2="1709.09" y2="990.273" gradientUnits="userSpaceOnUse">
<stop stop-color="#FC887B"/>
<stop offset="0.9959" stop-color="#FFDD95"/>
</linearGradient>
<linearGradient id="paint16_linear_289_1096" x1="1625.7" y1="1134.39" x2="1446.34" y2="744.946" gradientUnits="userSpaceOnUse">
<stop stop-color="#86E3CE"/>
<stop offset="1" stop-color="#D0E6A5"/>
</linearGradient>
<linearGradient id="paint17_linear_289_1096" x1="1412.64" y1="721.71" x2="1571.99" y2="721.71" gradientUnits="userSpaceOnUse">
<stop stop-color="#86E3CE"/>
<stop offset="1" stop-color="#D0E6A5"/>
</linearGradient>
<linearGradient id="paint18_linear_289_1096" x1="1314.44" y1="921.13" x2="1352.38" y2="921.13" gradientUnits="userSpaceOnUse">
<stop stop-color="#86E3CE"/>
<stop offset="1" stop-color="#D0E6A5"/>
</linearGradient>
<linearGradient id="paint19_linear_289_1096" x1="1278.91" y1="997.405" x2="1343.82" y2="997.405" gradientUnits="userSpaceOnUse">
<stop stop-color="#86E3CE"/>
<stop offset="1" stop-color="#D0E6A5"/>
</linearGradient>
<linearGradient id="paint20_linear_289_1096" x1="1264.51" y1="929.439" x2="1299.9" y2="929.439" gradientUnits="userSpaceOnUse">
<stop stop-color="#86E3CE"/>
<stop offset="1" stop-color="#D0E6A5"/>
</linearGradient>
</defs>
</svg>
