<svg width="338" height="321" viewBox="0 0 338 321" fill="none" xmlns="http://www.w3.org/2000/svg">
<path d="M522.775 372.699C514.319 343.103 502.27 314.352 489.163 288.561C446.671 204.847 394.032 115.424 316.026 60.0373C254.719 16.4887 169.736 0.845105 100.186 36.149C21.1217 76.1037 -22.0041 187.935 11.3972 270.17C47.3354 342.891 164.24 348.176 181.997 430.411C188.762 461.699 180.306 497.214 188.974 529.135C195.95 554.504 211.594 578.603 230.197 596.784C268.883 634.202 324.693 647.943 377.332 638.852C429.125 629.762 477.536 600.166 506.497 555.983C542.436 501.23 540.322 434.639 522.775 372.699Z" fill="url(#paint0_linear_283_1137)"/>
<path opacity="0.56" d="M644.331 347.543C641.583 332.322 643.485 316.467 655.535 298.075C668.642 277.992 686.822 261.502 697.392 239.94C714.939 204.213 703.946 159.184 679.423 129.377C625.093 63.8428 517.067 69.9734 443.289 90.2679C368.241 110.985 296.365 152.42 238.23 204.001C196.584 240.785 156.841 280.317 120.903 322.597C99.1282 348.177 30.2118 421.11 63.1903 458.317C73.1261 469.521 89.8268 472.903 104.202 474.383C125.976 476.92 143.1 479.245 162.76 490.449C195.95 509.475 222.586 534.209 262.33 537.803C303.976 541.397 345.199 528.502 386.845 528.079C419.612 527.656 451.745 535.266 482.609 545.625C511.571 555.349 536.305 570.359 567.381 566.342C603.108 561.691 636.297 538.226 656.169 508.63C673.081 483.262 680.48 450.072 672.236 420.264C663.991 392.994 648.559 371.008 644.331 347.543Z" fill="#FFDD95"/>
<path d="M208.846 114.368C257.468 99.3583 307.993 124.726 356.826 114.368C420.246 100.838 407.351 11.8384 468.023 0C599.303 3.59381 624.671 188.147 610.507 286.659C606.913 310.97 599.514 330.631 579.219 346.274C516.433 394.051 433.353 365.512 363.379 389.823C332.092 400.816 313.912 423.647 306.724 455.357C298.691 490.661 298.479 532.73 266.981 556.618C216.667 594.67 161.703 541.609 150.922 491.084C128.936 433.16 167.622 385.172 192.356 336.55C233.157 262.137 93.2094 150.094 208.846 114.368Z" fill="url(#paint1_linear_283_1137)"/>
<path d="M397.415 30.8643C396.147 24.9451 389.593 20.0828 383.674 20.2942C372.047 20.717 365.071 31.4985 355.769 37.2063C346.045 43.1255 336.954 48.6219 325.539 50.9473C315.814 53.0613 305.878 53.0613 296.154 50.5245C283.259 47.1421 272.266 39.5317 258.736 38.8975C246.264 38.4747 235.271 52.2157 239.499 64.2656C251.549 99.1467 303.976 106.123 335.263 97.6668C350.484 93.4388 367.185 85.1942 378.178 73.7786C388.536 63.4199 400.586 46.2965 397.415 30.8643Z" fill="url(#paint2_linear_283_1137)"/>
<path d="M177.347 257.486C177.347 256.641 177.135 256.006 177.135 255.161C175.655 246.916 167.833 240.786 159.8 240.574C149.23 240.151 140.986 249.242 140.563 259.6C140.14 270.805 149.864 280.106 160.857 280.106C164.028 280.106 167.834 279.261 170.793 277.569C175.867 274.61 178.403 269.325 178.615 263.617C178.403 261.291 178.192 259.389 177.347 257.486Z" fill="url(#paint3_linear_283_1137)"/>
<path d="M152.401 306.319C148.385 304.628 144.157 303.994 140.351 304.205C134.221 302.937 127.456 303.994 121.537 307.376C114.349 311.393 109.275 318.157 106.95 325.556C104.625 331.898 104.202 338.875 106.316 345.428C111.178 361.917 128.936 372.276 145.636 367.836C157.052 364.665 166.354 354.307 169.102 342.891C172.273 328.727 166.565 312.45 152.401 306.319Z" fill="url(#paint4_linear_283_1137)"/>
<path d="M123.651 258.331C121.325 254.949 118.366 252.201 114.349 251.144C110.967 250.298 108.853 250.509 105.682 251.144C102.299 251.778 98.4941 254.103 96.1687 256.64C93.6319 259.388 92.7862 261.291 91.3064 264.673C90.6722 266.576 90.461 268.478 90.461 270.381C90.461 272.495 90.8837 274.609 91.7294 276.512C92.3636 278.414 93.4205 280.105 95.1117 281.585C96.5915 283.065 98.2828 284.334 100.185 284.968C102.088 286.025 104.202 286.448 106.316 286.236C110.333 286.025 114.561 284.756 117.52 281.797C117.943 281.585 118.366 281.163 118.788 280.951C119.423 280.317 120.268 279.894 120.691 279.26C121.537 278.414 122.594 276.934 123.228 275.877C123.651 275.032 124.074 274.186 124.285 273.552C124.708 272.706 124.919 272.072 125.131 271.015C126.188 266.787 126.188 262.136 123.651 258.331Z" fill="url(#paint5_linear_283_1137)"/>
<defs>
<linearGradient id="paint0_linear_283_1137" x1="0.256849" y1="329.273" x2="535.093" y2="329.273" gradientUnits="userSpaceOnUse">
<stop stop-color="#FC887B"/>
<stop offset="0.9959" stop-color="#FFDD95"/>
</linearGradient>
<linearGradient id="paint1_linear_283_1137" x1="451.697" y1="473.393" x2="272.345" y2="83.9464" gradientUnits="userSpaceOnUse">
<stop stop-color="#86E3CE"/>
<stop offset="1" stop-color="#D0E6A5"/>
</linearGradient>
<linearGradient id="paint2_linear_283_1137" x1="238.645" y1="60.7102" x2="397.992" y2="60.7102" gradientUnits="userSpaceOnUse">
<stop stop-color="#86E3CE"/>
<stop offset="1" stop-color="#D0E6A5"/>
</linearGradient>
<linearGradient id="paint3_linear_283_1137" x1="140.435" y1="260.13" x2="178.377" y2="260.13" gradientUnits="userSpaceOnUse">
<stop stop-color="#86E3CE"/>
<stop offset="1" stop-color="#D0E6A5"/>
</linearGradient>
<linearGradient id="paint4_linear_283_1137" x1="104.909" y1="336.405" x2="169.821" y2="336.405" gradientUnits="userSpaceOnUse">
<stop stop-color="#86E3CE"/>
<stop offset="1" stop-color="#D0E6A5"/>
</linearGradient>
<linearGradient id="paint5_linear_283_1137" x1="90.5105" y1="268.439" x2="125.899" y2="268.439" gradientUnits="userSpaceOnUse">
<stop stop-color="#86E3CE"/>
<stop offset="1" stop-color="#D0E6A5"/>
</linearGradient>
</defs>
</svg>
