<svg width="231" height="304" viewBox="0 0 231 304" fill="none" xmlns="http://www.w3.org/2000/svg">
<path d="M150.892 125.097C175.692 94.4971 216.592 109.797 227.892 87.3971C240.492 62.2971 201.192 19.0971 182.992 -0.902901C156.292 -30.2029 133.192 -55.6029 95.4924 -59.5029C52.7924 -64.0029 2.3924 -39.9029 -3.9076 -8.3029C-10.0076 22.2971 29.5925 39.2971 22.6925 67.5971C13.5925 104.397 -59.4076 100.297 -63.9076 128.597C-67.9076 153.997 -13.7076 186.997 33.4924 196.297C45.3924 198.597 102.892 209.897 129.492 179.497C145.792 160.897 134.292 145.597 150.892 125.097Z" fill="url(#paint0_linear_283_1121)"/>
<path opacity="0.56" d="M-103.908 170.497C-104.008 75.9972 -0.307648 15.9972 85.3923 41.2972C147.692 59.5972 176.692 111.597 183.692 125.297C202.992 163.097 225.292 242.297 181.092 280.897C153.092 305.297 107.292 311.497 74.9923 291.797C61.3923 283.497 51.3923 271.097 47.0923 255.697C44.4923 246.497 45.0923 235.397 34.5923 231.197C29.7923 229.297 24.2924 229.297 19.1924 230.497C-4.1076 236.197 -19.0076 264.497 -44.8076 261.597C-60.1076 259.897 -70.6076 246.497 -79.8076 235.497C-95.0076 217.197 -103.908 194.397 -103.908 170.497Z" fill="#FFDD95"/>
<path d="M-143.408 167.697C-138.008 146.997 -97.7076 155.397 -71.1076 121.197C-58.1076 104.497 -48.3076 77.4971 -55.0076 53.0971C-66.0076 12.9971 -113.408 9.69713 -113.208 -15.1029C-113.008 -40.3029 -65.1076 -73.2029 -27.3076 -64.6029C16.4924 -54.7029 20.5924 4.69712 64.9924 9.89712C91.7924 13.0971 105.192 -6.80287 121.592 1.29713C145.492 13.0971 144.892 63.1971 138.892 92.8971C128.292 145.597 91.7924 177.697 78.7924 188.797C68.1924 197.897 -6.30756 259.597 -79.8076 233.497C-115.208 220.897 -148.908 188.297 -143.408 167.697Z" fill="url(#paint1_linear_283_1121)"/>
<path d="M221.592 149.097C221.192 139.097 215.992 129.097 209.592 121.597C205.792 117.097 196.992 107.997 191.392 115.097C187.792 119.697 191.992 124.797 194.092 128.997C196.692 134.197 199.092 139.897 201.292 145.397C203.092 150.097 204.292 156.397 209.292 158.997C213.292 161.097 217.492 159.097 219.792 155.597C221.292 153.597 221.692 151.397 221.592 149.097Z" fill="url(#paint2_linear_283_1121)"/>
<path d="M212.892 106.597C209.992 104.997 207.392 104.097 204.092 105.397C202.392 106.097 202.492 108.397 203.992 109.097C206.592 110.397 218.292 122.997 219.992 114.097C220.792 110.097 215.692 108.097 212.892 106.597Z" fill="url(#paint3_linear_283_1121)"/>
<path d="M21.3924 271.497C29.1244 271.497 35.3924 265.229 35.3924 257.497C35.3924 249.765 29.1244 243.497 21.3924 243.497C13.6604 243.497 7.3924 249.765 7.3924 257.497C7.3924 265.229 13.6604 271.497 21.3924 271.497Z" fill="url(#paint4_linear_283_1121)"/>
<path d="M40.3924 278.497C43.1538 278.497 45.3924 276.258 45.3924 273.497C45.3924 270.736 43.1538 268.497 40.3924 268.497C37.631 268.497 35.3924 270.736 35.3924 273.497C35.3924 276.258 37.631 278.497 40.3924 278.497Z" fill="url(#paint5_linear_283_1121)"/>
<path d="M25.3924 287.497C27.6015 287.497 29.3924 285.706 29.3924 283.497C29.3924 281.288 27.6015 279.497 25.3924 279.497C23.1833 279.497 21.3924 281.288 21.3924 283.497C21.3924 285.706 23.1833 287.497 25.3924 287.497Z" fill="url(#paint6_linear_283_1121)"/>
<defs>
<linearGradient id="paint0_linear_283_1121" x1="-69.6171" y1="154.904" x2="164.218" y2="18.902" gradientUnits="userSpaceOnUse">
<stop stop-color="#FC887B"/>
<stop offset="0.9959" stop-color="#FFDD95"/>
</linearGradient>
<linearGradient id="paint1_linear_283_1121" x1="-113.056" y1="239.394" x2="63.2118" y2="-32.7067" gradientUnits="userSpaceOnUse">
<stop stop-color="#86E3CE"/>
<stop offset="1" stop-color="#D0E6A5"/>
</linearGradient>
<linearGradient id="paint2_linear_283_1121" x1="189.988" y1="136.234" x2="221.601" y2="136.234" gradientUnits="userSpaceOnUse">
<stop stop-color="#86E3CE"/>
<stop offset="1" stop-color="#D0E6A5"/>
</linearGradient>
<linearGradient id="paint3_linear_283_1121" x1="202.912" y1="111.021" x2="220.115" y2="111.021" gradientUnits="userSpaceOnUse">
<stop stop-color="#86E3CE"/>
<stop offset="1" stop-color="#D0E6A5"/>
</linearGradient>
<linearGradient id="paint4_linear_283_1121" x1="7.3924" y1="257.497" x2="35.3924" y2="257.497" gradientUnits="userSpaceOnUse">
<stop stop-color="#86E3CE"/>
<stop offset="1" stop-color="#D0E6A5"/>
</linearGradient>
<linearGradient id="paint5_linear_283_1121" x1="35.3924" y1="273.497" x2="45.3924" y2="273.497" gradientUnits="userSpaceOnUse">
<stop stop-color="#86E3CE"/>
<stop offset="1" stop-color="#D0E6A5"/>
</linearGradient>
<linearGradient id="paint6_linear_283_1121" x1="21.3924" y1="283.497" x2="29.3924" y2="283.497" gradientUnits="userSpaceOnUse">
<stop stop-color="#86E3CE"/>
<stop offset="1" stop-color="#D0E6A5"/>
</linearGradient>
</defs>
</svg>
