<svg width="303" height="626" viewBox="0 0 303 626" fill="none" xmlns="http://www.w3.org/2000/svg">
<rect x="1.5" y="1.5" width="300" height="623" rx="47.5" fill="white" stroke="#AAAAAA" stroke-width="3"/>
<g clip-path="url(#clip0_163_974)">
<path d="M17 57C17 34.9086 34.9086 17 57 17H246C268.091 17 286 34.9086 286 57V569C286 591.091 268.091 609 246 609H57C34.9086 609 17 591.091 17 569V57Z" fill="#EEEEEE"/>
<rect x="-72" y="-103" width="448" height="875" rx="185" fill="url(#paint0_linear_163_974)"/>
<path d="M47 17H256V25C256 37.1503 246.15 47 234 47H69C56.8497 47 47 37.1503 47 25V17Z" fill="#FAFAFA"/>
<path d="M81.3054 278.821V296.057C81.3054 296.717 81.0426 297.351 80.5746 297.818C80.107 298.285 79.4724 298.548 78.8106 298.548C78.1491 298.548 77.5146 298.285 77.0466 297.818C76.5787 297.351 76.3159 296.717 76.3159 296.057V278.844C77.0106 279.351 77.8433 279.634 78.7032 279.655C79.6405 279.682 80.5589 279.387 81.3054 278.821ZM102.553 273.838C101.92 273.838 101.312 274.089 100.865 274.536C100.417 274.983 100.165 275.59 100.165 276.222V279.226C100.165 279.887 100.428 280.52 100.896 280.987C101.364 281.455 101.998 281.717 102.66 281.717C103.322 281.717 103.956 281.455 104.424 280.987C104.892 280.52 105.155 279.887 105.155 279.226V276.341C105.173 275.999 105.118 275.658 104.993 275.339C104.867 275.021 104.674 274.733 104.427 274.495C104.18 274.258 103.885 274.076 103.562 273.963C103.238 273.849 102.894 273.807 102.553 273.838ZM70.8966 285.353C70.0376 285.327 69.206 285.045 68.5093 284.542V301.826C68.5093 302.49 68.7734 303.126 69.2435 303.596C69.7136 304.065 70.3512 304.329 71.016 304.329C71.6808 304.329 72.3184 304.065 72.7885 303.596C73.2586 303.126 73.5227 302.49 73.5227 301.826V284.661C72.7431 285.165 71.8233 285.407 70.8966 285.353ZM94.77 268.665C94.4465 268.649 94.1232 268.699 93.8196 268.811C93.5161 268.924 93.2387 269.097 93.0041 269.32C92.7696 269.543 92.5832 269.811 92.4557 270.108C92.3284 270.406 92.2628 270.726 92.2633 271.049V284.328C92.2633 284.991 92.5273 285.628 92.9974 286.098C93.4677 286.567 94.1051 286.831 94.77 286.831C95.4348 286.831 96.0725 286.567 96.5426 286.098C97.0126 285.628 97.2767 284.991 97.2767 284.328V271.216C97.2958 270.872 97.2399 270.528 97.1129 270.207C96.9859 269.887 96.7911 269.598 96.5414 269.36C96.2917 269.122 95.9935 268.941 95.6671 268.829C95.3408 268.717 94.9939 268.678 94.6506 268.713L94.77 268.665ZM86.844 273.767C85.9447 273.76 85.0695 273.477 84.3373 272.956V290.287C84.3373 290.951 84.6014 291.588 85.0714 292.058C85.5417 292.527 86.1792 292.791 86.844 292.791C87.5089 292.791 88.1463 292.527 88.6166 292.058C89.0867 291.588 89.3507 290.951 89.3507 290.287V272.98C88.5935 273.543 87.6688 273.837 86.7247 273.814L86.844 273.767ZM65.4774 287.045V238.627C65.4711 238.037 65.2319 237.473 64.8117 237.058C64.3916 236.643 63.8244 236.41 63.2333 236.41H62.7081C62.117 236.41 61.5498 236.643 61.1296 237.058C60.7095 237.473 60.4703 238.037 60.464 238.627V287.045C60.464 287.64 60.7004 288.21 61.1213 288.63C61.5421 289.05 62.1129 289.286 62.7081 289.286H63.2333C63.8285 289.286 64.3993 289.05 64.8201 288.63C65.241 288.21 65.4774 287.64 65.4774 287.045ZM71.1592 283.517H70.634C70.0389 283.517 69.4681 283.281 69.0472 282.861C68.6264 282.44 68.3899 281.87 68.3899 281.276V244.396C68.3962 243.806 68.6354 243.242 69.0556 242.827C69.4758 242.412 70.043 242.179 70.634 242.179H71.1592C71.7503 242.179 72.3175 242.412 72.7377 242.827C73.1578 243.242 73.3971 243.806 73.4033 244.396V281.324C73.4033 281.918 73.1669 282.488 72.7461 282.908C72.3252 283.329 71.7544 283.565 71.1592 283.565V283.517ZM79.0613 277.843H78.5122C77.9235 277.843 77.3587 277.61 76.9423 277.194C76.526 276.778 76.292 276.214 76.292 275.626V250.118C76.2889 249.825 76.3441 249.534 76.4541 249.262C76.5642 248.99 76.7272 248.743 76.9337 248.535C77.1402 248.326 77.3861 248.161 77.6571 248.048C77.9281 247.935 78.2186 247.877 78.5122 247.877H79.0613C79.6524 247.883 80.217 248.122 80.6327 248.542C81.0485 248.961 81.2815 249.528 81.2815 250.118V275.626C81.2815 276.214 81.0476 276.778 80.6312 277.194C80.2149 277.61 79.6503 277.843 79.0613 277.843ZM86.9634 272.003H86.4621C85.8709 272.003 85.3037 271.77 84.8835 271.355C84.4634 270.94 84.2242 270.376 84.218 269.785V256.054C84.1984 255.748 84.2418 255.441 84.3459 255.152C84.4498 254.864 84.6121 254.599 84.8224 254.376C85.0328 254.152 85.2868 253.975 85.569 253.853C85.8509 253.732 86.1548 253.669 86.4621 253.67H86.9873C87.5824 253.67 88.1532 253.906 88.5741 254.326C88.995 254.747 89.2314 255.317 89.2314 255.911V269.738C89.2345 270.034 89.1788 270.328 89.0674 270.603C88.9561 270.877 88.7914 271.127 88.5825 271.338C88.3738 271.548 88.1255 271.715 87.8515 271.83C87.5777 271.944 87.284 272.003 86.9873 272.003H86.9634ZM94.8893 266.877H94.3641C93.769 266.877 93.1982 266.641 92.7773 266.221C92.3564 265.8 92.12 265.23 92.12 264.636V261.084C92.1262 260.494 92.3654 259.93 92.7856 259.515C93.2058 259.1 93.773 258.867 94.3641 258.867H94.8893C95.4804 258.867 96.0477 259.1 96.4678 259.515C96.888 259.93 97.1272 260.494 97.1334 261.084V264.636C97.1334 265.226 96.9004 265.793 96.4846 266.212C96.0689 266.632 95.5043 266.871 94.9132 266.877H94.8893Z" fill="white"/>
<path d="M123.272 272L120.104 266.48H118.28V272H114.44V255.2H121.16C122.76 255.2 124.12 255.76 125.24 256.88C126.36 258 126.92 259.36 126.92 260.96C126.92 261.984 126.632 262.936 126.056 263.816C125.496 264.68 124.752 265.352 123.824 265.832L127.4 272H123.272ZM118.28 258.8V263.12H121.16C121.688 263.12 122.136 262.912 122.504 262.496C122.888 262.08 123.08 261.568 123.08 260.96C123.08 260.352 122.888 259.84 122.504 259.424C122.136 259.008 121.688 258.8 121.16 258.8H118.28ZM133.046 268.304H139.766V272H129.206V255.2H139.646V258.896H133.046V261.68H139.046V265.328H133.046V268.304ZM151.292 255.2H155.132V272H152.252L145.772 262.88V272H141.932V255.2H144.812L151.292 264.32V255.2ZM164.73 255.2C167.05 255.2 168.986 256.008 170.538 257.624C172.106 259.224 172.89 261.216 172.89 263.6C172.89 265.984 172.106 267.984 170.538 269.6C168.986 271.2 167.05 272 164.73 272H158.01V255.2H164.73ZM164.73 268.304C166.058 268.304 167.13 267.88 167.946 267.032C168.778 266.168 169.194 265.024 169.194 263.6C169.194 262.176 168.778 261.04 167.946 260.192C167.13 259.328 166.058 258.896 164.73 258.896H161.85V268.304H164.73ZM178.889 268.304H185.609V272H175.049V255.2H185.489V258.896H178.889V261.68H184.889V265.328H178.889V268.304ZM196.608 272L193.44 266.48H191.616V272H187.776V255.2H194.496C196.096 255.2 197.456 255.76 198.576 256.88C199.696 258 200.256 259.36 200.256 260.96C200.256 261.984 199.968 262.936 199.392 263.816C198.832 264.68 198.088 265.352 197.16 265.832L200.736 272H196.608ZM191.616 258.8V263.12H194.496C195.024 263.12 195.472 262.912 195.84 262.496C196.224 262.08 196.416 261.568 196.416 260.96C196.416 260.352 196.224 259.84 195.84 259.424C195.472 259.008 195.024 258.8 194.496 258.8H191.616ZM203.19 276.8V254.72H204.39V276.8H203.19ZM223.749 255.2V272H222.477V257.072L216.261 267.392H216.045L209.829 257.072V272H208.557V255.2H210.141L216.141 265.136L222.141 255.2H223.749ZM239.22 272L237.588 267.728H229.164L227.532 272H226.188L232.716 255.2H234.06L240.564 272H239.22ZM229.644 266.528H237.132L233.388 256.76L229.644 266.528ZM253.618 272L249.586 265.112H244.282V272H243.01V255.2H249.634C250.994 255.2 252.162 255.688 253.138 256.664C254.114 257.64 254.602 258.808 254.602 260.168C254.602 261.304 254.25 262.312 253.546 263.192C252.858 264.072 251.978 264.656 250.906 264.944L255.082 272H253.618ZM244.282 256.4V263.912H249.634C250.658 263.912 251.53 263.552 252.25 262.832C252.97 262.096 253.33 261.208 253.33 260.168C253.33 259.128 252.97 258.24 252.25 257.504C251.53 256.768 250.658 256.4 249.634 256.4H244.282ZM269.129 272H267.425L259.001 263.72V272H257.729V255.2H259.001V263.024L267.185 255.2H268.889L260.393 263.36L269.129 272Z" fill="white"/>
</g>
<defs>
<linearGradient id="paint0_linear_163_974" x1="358.294" y1="681.939" x2="-165.12" y2="584.751" gradientUnits="userSpaceOnUse">
<stop stop-color="#7334D5"/>
<stop offset="0.392056" stop-color="#553FDE"/>
<stop offset="0.869667" stop-color="#D34DC8"/>
<stop offset="1" stop-color="#BF18BD"/>
</linearGradient>
<clipPath id="clip0_163_974">
<rect x="17" y="17" width="269" height="592" rx="40" fill="white"/>
</clipPath>
</defs>
</svg>
